/* XPM */
static char *_c5c4640ffcd4cecca7378efc1da6c377kDWTekyd9DF1w5a[] = {
/* columns rows colors chars-per-pixel */
"64 64 178 2 ",
"   c #241E1B",
".  c #2F2A26",
"X  c #2D363A",
"o  c #3D3835",
"O  c #44403E",
"+  c #0A4A77",
"@  c #044371",
"#  c #10547F",
"$  c #4C4744",
"%  c #514D4A",
"&  c #515B5F",
"*  c #615E5C",
"=  c #51707F",
"-  c #716F74",
";  c #7B7876",
":  c #E6676E",
">  c #E7686F",
",  c #E9676D",
"<  c #145A85",
"1  c #1E668F",
"2  c #076F9F",
"3  c #206B93",
"4  c #28769D",
"5  c #0574A2",
"6  c #0C74A3",
"7  c #0A7FA8",
"8  c #1275A4",
"9  c #167AA8",
"0  c #307FA4",
"q  c #BB7886",
"w  c #DF7D84",
"e  c #0780A8",
"r  c #0C85AB",
"t  c #0B8CAF",
"y  c #1485AC",
"u  c #1C84AE",
"i  c #138AAF",
"p  c #0D8EB0",
"a  c #128BB0",
"s  c #0D94B3",
"d  c #0E9AB6",
"f  c #1496B5",
"g  c #119FB9",
"h  c #2484AC",
"j  c #2986AE",
"k  c #2C88AF",
"l  c #3484A9",
"z  c #388AAE",
"x  c #2589B3",
"c  c #2A8CB4",
"v  c #2C8FB8",
"b  c #328DB3",
"n  c #3A8DB3",
"m  c #3287B0",
"M  c #2D92B9",
"N  c #2C9BBE",
"B  c #2390B5",
"V  c #3590B6",
"C  c #3D91B5",
"Z  c #3295BC",
"A  c #3B96BC",
"S  c #3599BF",
"D  c #3B99BE",
"F  c #14A6BD",
"G  c #1BA7BF",
"H  c #19A8BF",
"J  c #408FB4",
"K  c #4395BA",
"L  c #4A95B9",
"P  c #439ABD",
"I  c #4C9ABE",
"U  c #4693B7",
"Y  c #539BBE",
"T  c #5D9DBE",
"R  c #3B9DC1",
"E  c #379BC0",
"W  c #1CA9C0",
"Q  c #25ACC4",
"!  c #2CADC6",
"~  c #28A7C2",
"^  c #3EA1C5",
"/  c #32AEC8",
"(  c #3EAFCC",
")  c #34B0C9",
"_  c #3BB2CC",
"`  c #429EC1",
"'  c #4B9EC1",
"]  c #529EC0",
"[  c #5A9FC0",
"{  c #41A2C5",
"}  c #4BA5C5",
"|  c #44A7C9",
" . c #46AACA",
".. c #4BACCD",
"X. c #4AA6C8",
"o. c #54A2C3",
"O. c #5CA3C3",
"+. c #54ABCB",
"@. c #58ADCC",
"#. c #40B5CE",
"$. c #4DB0CF",
"%. c #54B1CF",
"&. c #46B6D0",
"*. c #4DB4D1",
"=. c #4EB9D4",
"-. c #53B4D2",
";. c #54B9D5",
":. c #59BAD7",
">. c #5CBDD9",
",. c #63A4C3",
"<. c #6CA6C4",
"1. c #65A8C7",
"2. c #6DAAC7",
"3. c #6CADCA",
"4. c #65AECB",
"5. c #74ABC6",
"6. c #72AECA",
"7. c #78AFCA",
"8. c #66B0CD",
"9. c #6BB3CE",
"0. c #7BB2CD",
"q. c #76B1CC",
"w. c #7AB8D1",
"e. c #A7899A",
"r. c #8B99A7",
"t. c #A390A1",
"y. c #A8A7A6",
"u. c #E78288",
"i. c #EA9EA4",
"p. c #DEAEB1",
"a. c #89AFC2",
"s. c #84B6CE",
"d. c #87B8CF",
"f. c #88B8CF",
"g. c #84BBD3",
"h. c #8BBAD1",
"j. c #92BED4",
"k. c #93C1D6",
"l. c #9BC3D7",
"z. c #9DC6D9",
"x. c #9BC8DB",
"c. c #A3C7DA",
"v. c #A6CADC",
"b. c #ACCDDE",
"n. c #B0CFDF",
"m. c #B4D3E2",
"M. c #BBD5E3",
"N. c #BDD8E5",
"B. c #C9C8C7",
"V. c #C8C9C9",
"C. c #DFC0C2",
"Z. c #C2D0D7",
"A. c #D9D9D9",
"S. c #E0E0DF",
"D. c #C5DBE7",
"F. c #C1D9E6",
"G. c #C5DDE9",
"H. c #C7DCE8",
"J. c #CADEE9",
"K. c #CCE1EB",
"L. c #D4E4ED",
"P. c #D8E7EF",
"I. c #DCEAF1",
"U. c #ECEBEB",
"Y. c #F5EDEF",
"T. c #E4EEF4",
"R. c #E7F0F5",
"E. c #EAF2F6",
"W. c #EEF4F8",
"Q. c #F1F6F9",
"!. c #F2F6F9",
"~. c #F6F9FB",
"^. c #F5F8FA",
"/. c #F5F9FB",
"(. c white",
"). c #FEFEFE",
"_. c #FCFDFE",
"`. c #FFFFFF",
/* pixels */
"(.(.(.(.(.(.(.(.(.(.(.(.(.(.(.(.(.(.(.(.(.v.R >.>.>.>.>.>.>.>.x M >.>.>.>.>.>.>.>.-.I T.(.(.(.(.(.(.(.(.(.(.(.(.(.(.(.(.(.(.(.(.",
"(.(.(.(.(.(.(.(.(.(.(.(.(.(.(.(.(.(.(.(.(.E.o.-.>.>.>.>.>.>.>.v D >.>.>.>.>.>.>.>.R v.(.(.(.(.(.(.(.(.(.(.(.(.(.(.(.(.(.(.(.(.(.",
"(.(.(.(.(.(.(.(.(.(.(.(.(.(.(.(.(.(.(.(.(.(.m.R >.>.>.>.>.>.>.M R >.>.>.>.>.>.>...2./.(.(.(.(.(.(.(.(.(.(.(.(.(.(.(.(.(.(.(.(.(.",
"(.(.(.(.(.(.(.(.(.(.(.(.(.(.(.(.(.(.(.(.(.(./.,.$.>.>.>.>.>.>.Z ^ >.>.>.>.>.>.:.` L.(.(.(.(.(.(.(.(.(.(.(.(.(.(.(.(.(.(.(.(.(.(.",
"(.(.(.(.(.(.(.(.(.(.(.(.(.(.(.(.(.(.(.(.(.(.(.b.D >.>.>.>.>.>.S ^ >.>.>.>.>.>. .g.(.(.(.(.(.(.(.(.(.(.(.(.(.(.(.(.(.(.(.(.(.(.(.",
"(.(.(.(.(.(.(.(.(.(.(.(.(.(.(.(.(.(.(.(.(.(.(.E.Y *.>.>.>.>.>.S { >.>.>.>.>.:.I P.(.(.(.(.(.(.(.(.(.(.(.(.(.(.(.(.(.(.(.(.(.(.(.",
"(.(.(.(.(.(.(.(.(.(.(.(.(.(.(.(.(.(.(.(.(.(.(.(.h.^ >.>.>.>.>.S { >.>.>.>.>.| h.(.(.(.(.(.(.(.(.(.(.(.(.(.(.(.(.(.(.(.(.(.(.(.(.",
"(.(.(.(.(.(.(.(.(.(.(.(.(.(.(.(.(.(.(.(.(.(.(.(.J.A >.>.>.>.>.Z { >.>.>.>.:.P L.(.(.(.(.(.(.(.(.(.(.(.(.(.(.(.(.(.(.(.(.(.(.(.(.",
"(.(.(.(.(.(.(.(.(.(.(.(.(.(.(.(.(.(.(.(.(.(.(.(.Q.] -.>.>.>.>.v { >.>.>.>...2.(.(.(.(.(.(.(.(.(.(.(.(.(.(.(.(.(.(.(.(.(.(.(.(.(.",
"(.(.(.(.(.(.(.(.(.(.(.(.(.(.(.(.(.(.(.(.(.(.(.(.(.s.| >.>.>.>.x ^ >.>.>.>.D b.(.(.(.(.(.(.(.(.(.(.(.(.(.(.(.(.(.(.(.(.(.(.(.(.(.",
"(.(.(.(.(.(.(.(.(.(.(.(.(.(.(.(.(.(.(.(.(.(.(.(.(.m.R >.>.>.:.u R >.>.>.;.P T.(.(.(.(.(.(.(.(.(.(.(.(.(.(.(.(.(.(.(.(.(.(.(.(.(.",
"(.(.(.(.(.(.(.(.(.(.(.(.(.(.(.(.(.(.(.(.(.(.(.(.(.I.P :.>.>.;.9 E >.>.>...2._.(.(.(.(.(.(.(.(.(.(.(.(.(.(.(.(.(.(.(.(.(.(.(.(.(.",
"(.(.(.(.(.(.(.(.(.(.(.(.(.(.(.(.(.(.(.(.(.(.(.(.(./.O.-.>.>.-.9 Z >.>.>.^ k.(.(.(.(.(.(.(.(.(.(.(.(.(.(.(.(.(.(.(.(.(.(.(.(.(.(.",
"(.(.(.(.(.(.(.(.(.(.(.(.(.(.(.(.(.(.(.(.(.(.(.(.(.(.0...>.>.*.m A >.>.>.D N.(.(.(.(.(.(.(.(.(.(.(.(.(.(.(.(.(.(.(.(.(.(.(.(.(.(.",
"(.(.(.(.(.(.(.(.(.(.(.(.(.(.(.(.(.(.(.(.(.(.(.(.(.(.l.{ >.>...T K ;.>.:.A P.(.(.(.(.(.(.(.(.(.(.(.(.(.(.(.(.(.(.(.(.(.(.(.(.(.(.",
"(.(.(.(.(.(.(.(.(.(.(.(.(.(.(.(.(.(.(.(.(.(.(.(.(.(.n.R >.>.| s.I -.>.;.I E.(.(.(.(.(.(.(.(.(.(.(.(.(.(.(.(.(.(.(.(.(.(.(.(.(.(.",
"(.(.(.(.(.(.(.(.(.(.(.(.(.(.(.(.(.(.(.(.(.(.(.(.(.(.D.` >.>.{ s.L ..>.-.o./.(.(.(.(.(.(.(.(.(.(.(.(.(.(.(.(.(.(.(.(.(.(.(.(.(.(.",
"(.(.(.(.(.(.(.(.(.(.(.(.(.(.(.(.(.(.(.(.(.(.(.(.(.W.l.D >.>...` R -.>.-.P N.Q.(.(.(.(.(.(.(.(.(.(.(.(.(.(.(.(.(.(.(.(.(.(.(.(.(.",
"(.(.(.(.(.(.(.(.(.(.(.(.(.(.(.(.(.(.(.(.(.(.(.E.z.o.` -.>.>.>.>.>.>.>.>...` O.b.Q.(.(.(.(.(.(.(.(.(.(.(.(.(.(.(.(.(.(.(.(.(.(.(.",
"(.(.(.(.(.(.(.(.(.(.(.(.(.(.(.(.(.(.(.(.(.(.m.O.| -.>.>.>.>.>.>.>.%.C P -.>.-.| 1.D.(.(.(.(.(.(.(.(.(.(.(.(.(.(.(.(.(.(.(.(.(.(.",
"(.(.(.(.(.(.(.(.(.(.(.(.(.(.(.(.(.(.(.(.Q.h.` -.>.>.>.-.0 l :.>.>.C + + < n :.>.-.` l.~.(.(.(.(.(.(.(.(.(.(.(.(.(.(.(.(.(.(.(.(.",
"(.(.(.(.(.(.(.(.(.(.(.(.(.(.(.(.(.(.(.W.6.^ :.>.>.>.-.3 @ 1 -.>.>.-.} P z l ;.>.>.:.` h./.(.(.(.(.(.(.(.(.(.(.(.(.(.(.(.(.(.(.(.",
"(.(.(.(.(.(.(.(.(.(.(.(.(.(.(.(.(.(./.0.{ >.>.>.>.:.4 # C -.>.>.>.>.;.-.-.;.>.>.>.>.>.{ h.(.(.(.(.(.(.(.(.(.(.(.(.(.(.(.(.(.(.(.",
"(.(.(.(.(.(.(.(.(.(.(.(.(.(.(.(.(.(.j.` >.>.>.>.>.:.C } >.>.>.>.:...g.m.m.g.+.:.>.>.>.>.` b.(.(.(.(.(.(.(.(.(.(.(.(.(.(.(.(.(.(.",
"(.(.(.(.(.(.(.(.(.(.(.(.(.(.(.(.(.F.A ;.>.>.>.>.>.>.;.-.-.>.>.>. .z.(.(.(.(.v.X.>.>.>.>.-.I P.(.(.(.(.(.(.(.(.(.(.(.(.(.(.(.(.(.",
"(.(.(.(.(.(.(.(.(.(.(.(.(.(.(.(.Q.O...>.>.>.>.>.;.+.g.x.g.+.-.;.4./.(.(.(.(.~.0.-.>.>.>.>. .6._.(.(.(.(.(.(.(.(.(.(.(.(.(.(.(.(.",
"(.(.(.(.(.(.(.(.(.(.(.(.(.(.(.(.b.D >.>.>.>.>.:.+.G.(.(.(.L.O. .v.(.(.(.(.(.(.N. .>.>.>.>.>.P G.(.(.(.(.(.(.(.(.(.(.(.(.(.(.(.(.",
"(.(.(.(.(.(.(.(.(.(.(.(.(.(.(./.,...>.>.>.>.>. .z.(.(.(.(.(.G.A K.(.(.(.(.(.(.T.+.>.>.>.>.>. .0.(.(.(.(.(.(.(.(.(.(.(.(.(.(.(.(.",
"(.(.(.(.(.(.(.(.(.(.(.(.(.(.(.K.A :.>.>.>.>.>.+.I.(.(.(.(.A.V.5.Z.B.~.(.(.(.(.Q.8.:.>.>.>.>.;.I T.(.(.(.(.(.(.(.(.(.(.(.(.(.(.(.",
"(.(.(.(.(.(.(.(.(.(.(.(.(.(.(.k.R >.>.>.>.>.:.4.Q.(.(.(.S.O ; a.& % A.(.(.(.(./.9.:.>.>.>.>.>.R m.(.(.(.(.(.(.(.(.(.(.(.(.(.(.(.",
"(.(.(.(.(.(.(.(.(.(.(.(.(.(.(.1. .>.>.>.>.>.:.9./.(.(.(.B.  . = X   ; ~.(.(.(.W.8.>.>.>.>.>.>.| h.(.(.(.(.(.(.(.(.(.(.(.(.(.(.(.",
"(.(.(.(.(.(.(.(.(.(.(.(.(.(./.L  .>.>.>.>.>.>.8.E.(.(.(.U.* $ r.- o y.(.(.(.(.P.+.>.>.>.>.>.>...1.(.(.(.(.(.(.(.(.(.(.(.(.(.(.(.",
"(.(.(.(.(.(.(.(.(.(.(.(.(.(.E.V ( >.>.>.>.>.>.%.m.(.(.(.(.U.p.w w C.~.(.(.(.(.x.-.>.>.>.>.>.>.*.[ /.(.(.(.(.(.(.(.(.(.(.(.(.(.(.",
"(.(.(.(.(.(.(.(.(.(.(.(.(.(.T.c / >.>.>.>.>.>.:.+.m.~.(.(.Y.u.: : i._.(.(.(.N.+.>.>.>.>.>.>.>.-.Y ^.(.(.(.(.(.(.(.(.(.(.(.(.(.(.",
"(.(.(.(.(.(.(.(.(.(.(.(.(.(.T.c ~ >.>.>.>.>.:.;.;.} 3.k.k.<.q , > e.g.N.F.k.+.:.-...>.>.>.>.>.-.Y /.(.(.(.(.(.(.(.(.(.(.(.(.(.(.",
"(.(.(.(.(.(.(.(.(.(.(.(.(.(.Q.C F ;.>.>.>.>.:.{ ..>.;.....;.5.e.t.9.-.....-.:. .^ -.>.>.>.>.>...O.(.(.(.(.(.(.(.(.(.(.(.(.(.(.(.",
"(.(.(.(.(.(.(.(.(.(.(.(.(.E.l.j d _ >.>.>.>.>.-.^ ^ -.>.>.>.>.>.>.>.>.>.:...R | :.>.>.>.>.>.>.| n c.E.(.(.(.(.(.(.(.(.(.(.(.(.(.",
"(.(.(.(.(.(.(.(.(.(.(.(.P.Y R S s Q ;.>.>.>.>.>.>...S S | ..*.-.-...| R Z ^ -.>.>.>.>.>.>.>.>.R E E [ I.(.(.(.(.(.(.(.(.(.(.(.(.",
"(.(.(.(.(.(.(.(.(.(.(.T.Y | >. .r F _ >.>.>.>.>.>.>.:. .O.j.0.O.2.h.0.D -.>.>.>.>.>.>.>.>.>.:.x ..>.{ ] R.(.(.(.(.(.(.(.(.(.(.(.",
"(.(.(.(.(.(.(.(.(.(._.0.^ >.>.R 6 g W ;.>.>.>.>.>.>.>.;.w.(.(.M.P.(.v.-.>.>.>.>.>.>.>.>.>.>...9 ^ >.>.R s.(.(.(.(.(.(.(.(.(.(.(.",
"(.(.(.(.(.(.(.(.(.(.F.D :.>.>.` L p F ! ;.>.>.>.>.>.>.>.@.M.E.h.6.g.@.:.>.>.>.>.>.>.>.>.>.>.S ,.` >.>.:.D J.(.(.(.(.(.(.(.(.(.(.",
"(.(.(.(.(.(.(.(.(.(.q...>.>.:.o.M.j g F ) >.>.>.>.>.>.>.:.+.@...-.;.>.>.>.>.>.>.>.>.>.>.>...U G.' :.>.>...0.(.(.(.(.(.(.(.(.(.(.",
"(.(.(.(.(.(.(.(.(.R.' :.>.>.;.o.W.s.r F F _ >.>.>.>.>.>.>.>.>.>.>.>.>.>.>.>.>.>.>.>.>.>.:.v c.E.] :.>.>.;.] E.(.(.(.(.(.(.(.(.(.",
"(.(.(.(.(.(.(.(.(.G.R >.>.>.;.] E.E.U s F F / ;.>.>.>.>.>.>.>.>.>.>.>.>.>.>.>.>.>.>.>.>.R ,./.T.I :.>.>.>.D K.(.(.(.(.(.(.(.(.(.",
"(.(.(.(.(.(.(.(.(.n.{ >.>.>.:.P I.(.J.k s F F Q *.>.>.>.>.>.>.>.>.>.>.>.>.>.>.>.>.>.>.{ U I.(.P.P >.>.>.>.` M.(.(.(.(.(.(.(.(.(.",
"(.(.(.(.(.(.(.(.(.b.{ >.>.>.>.` J.(.(.m.h s F F H ! *.>.>.>.>.>.>.>.>.>.>.>.>.>.>.;.N n J.(.(.F.` >.>.>.>.R m.(.(.(.(.(.(.(.(.(.",
"(.(.(.(.(.(.(.(.(.N.A ..:.-.>.` F.(.(.(.M.k t F F F H ! #.;.;.>.>.>.>.>.>.;.=.#.! a C J.(.(.(.M.{ >.-.:...A D.(.(.(.(.(.(.(.(.(.",
"(.(.(.(.(.(.(.(.(.T.K R -.^ >.A K.(.(.(.(.L.Y r d F F F F W Q ! ) ) ) / ! Q H s r ,.I.(.(.(.(.G.D >.^ -.R U E.(.(.(.(.(.(.(.(.(.",
"(.(.(.(.(.(.(.(.(.(.h.c ..Z ^ Y W.(.(.(.(.(.Q.j.m y s F F F F F F F F F g s y n c./.(.(.(.(.(.E.L ^ Z ..x j.(.(.(.(.(.(.(.(.(.(.",
"(.(.(.(.(.(.(.(.(.(./.l.o.n [ K.(.(.(.(.(.(.(._.D.T 2 5 7 r p s s t r 7 5 8 <.L.(.(.(.(.(.(.(.(.G.Y C O.z./.(.(.(.(.(.(.(.(.(.(.",
"(.(.(.(.(.(.(.(.(.(.(.(.Q.E./.(.(.(.(.(.(.Q.n.,.K A E ^ R x 6 I J 6 M R ^ E A U 6.F.~.(.(.(.(.(.(./.E.Q.(.(.(.(.(.(.(.(.(.(.(.(.",
"(.(.(.(.(.(.(.(.(.(.(.(.(.(.(.(.(.(.(.(.M.Y Z | -.>.>.>.>.:.B s.,.N >.>.>.>.>.-.^ b ,.L.(.(.(.(.(.(.(.(.(.(.(.(.(.(.(.(.(.(.(.(.",
"(.(.(.(.(.(.(.(.(.(.(.(.(.(.(.(.(.(.(.l.b  .>.>.>.>.>.>.>.>.~ h u _ >.>.>.>.>.>.>.:.^ C N.(.(.(.(.(.(.(.(.(.(.(.(.(.(.(.(.(.(.(.",
"(.(.(.(.(.(.(.(.(.(.(.(.(.(.(.(.(.(.F.V -.>.>.>.>.>.>.>.>.;.G 5 e ! :.>.>.>.>.>.>.>.>...U I.(.(.(.(.(.(.(.(.(.(.(.(.(.(.(.(.(.(.",
"(.(.(.(.(.(.(.(.(.(.(.(.(.(.(.(.(.(.7.{ >.>.>.>.>.>.>.>.&.Q F 6 7 F ! =.>.>.>.>.>.>.>.>.D c.(.(.(.(.(.(.(.(.(.(.(.(.(.(.(.(.(.(.",
"(.(.(.(.(.(.(.(.(.(.(.(.(.(.(.(.(.(.0.N =.;.;.;.=.&.) Q H F s L b d F W ! _ &.=.;.;.=.*.M b.(.(.(.(.(.(.(.(.(.(.(.(.(.(.(.(.(.(.",
"(.(.(.(.(.(.(.(.(.(.(.(.(.(.(.(.(.(.L.C i f f f f s s s s s h N.l.y s s s s f f f f f y Y E.(.(.(.(.(.(.(.(.(.(.(.(.(.(.(.(.(.(.",
"(.(.(.(.(.(.(.(.(.(.(.(.(.(.(.(.(.(.(.T.b.h.d.f.d.s.d.s.s.h.J.(.~.M.h.s.s.d.s.d.f.f.j.m.W.(.(.(.(.(.(.(.(.(.(.(.(.(.(.(.(.(.(.(.",
"(.(.(.(.(.(.(.(.(.(.(.(.(.(.(.(.(.(.(.(.(.(.(.(.(.(.(.(.(.(.(.(.(.(.(.(.(.(.(.(.(.(.(.(.(.(.(.(.(.(.(.(.(.(.(.(.(.(.(.(.(.(.(.(.",
"(.(.(.(.(.(.(.(.(.(.(.(.(.(.(.(.(.(.(.(.(.(.(.(.(.(.(.(.(.(.(.(.(.(.(.(.(.(.(.(.(.(.(.(.(.(.(.(.(.(.(.(.(.(.(.(.(.(.(.(.(.(.(.(.",
"(.(.(.(.(.(.(.(.(.(.(.(.(.(.(.(.(.(.(.(.(.(.(.(.(.(.(.(.(.(.(.(.(.(.(.(.(.(.(.(.(.(.(.(.(.(.(.(.(.(.(.(.(.(.(.(.(.(.(.(.(.(.(.(.",
"(.(.(.(.(.(.(.(.(.(.(.(.(.(.(.(.(.(.(.(.(.(.(.(.(.(.(.(.(.(.(.(.(.(.(.(.(.(.(.(.(.(.(.(.(.(.(.(.(.(.(.(.(.(.(.(.(.(.(.(.(.(.(.(.",
"(.(.(.(.(.(.(.(.(.(.(.(.(.(.(.(.(.(.(.(.(.(.(.(.(.(.(.(.(.(.(.(.(.(.(.(.(.(.(.(.(.(.(.(.(.(.(.(.(.(.(.(.(.(.(.(.(.(.(.(.(.(.(.(.",
"(.(.(.(.(.(.(.(.(.(.(.(.(.(.(.(.(.(.(.(.(.(.(.(.(.(.(.(.(.(.(.(.(.(.(.(.(.(.(.(.(.(.(.(.(.(.(.(.(.(.(.(.(.(.(.(.(.(.(.(.(.(.(.(."
};
