/* XPM */
static char *fffed10c3c3e4d05f7da2dd1c56f8d2dclpUrMo6AQBZLaWP[] = {
/* columns rows colors chars-per-pixel */
"64 64 184 2 ",
"   c #1D1815",
".  c #251D1A",
"X  c #3A2E2C",
"o  c #2C2925",
"O  c #423E3C",
"+  c #514D4B",
"@  c #53504E",
"#  c #5A5654",
"$  c #9D3F3D",
"%  c #CF3A18",
"&  c #CF3A17",
"*  c #D43B17",
"=  c #DD3F16",
"-  c #C83F21",
";  c #9F403E",
":  c #DE4017",
">  c #DE421A",
",  c #C8452A",
"<  c #DF4722",
"1  c #DF4A25",
"2  c #C84B33",
"3  c #C1503B",
"4  c #D4573F",
"5  c #E04E29",
"6  c #E04C27",
"7  c #E1512C",
"8  c #E15434",
"9  c #E35C3B",
"0  c #A74E4D",
"q  c #AD5757",
"w  c #B15553",
"e  c #AA5B61",
"r  c #B76465",
"t  c #BD6E70",
"y  c #C15542",
"u  c #DF495B",
"i  c #E35C44",
"p  c #E04C5D",
"a  c #C1675A",
"s  c #E46344",
"d  c #E4654A",
"f  c #E56C4C",
"g  c #E66D55",
"h  c #E7725C",
"j  c #E77558",
"k  c #E04F60",
"l  c #E25464",
"z  c #E25B6A",
"x  c #C37166",
"c  c #C57B7E",
"v  c #C37A77",
"b  c #DF7E73",
"n  c #E87C64",
"m  c #E97D6C",
"M  c #E46472",
"N  c #E56A76",
"B  c #E66D79",
"V  c #E7737E",
"C  c #E97E78",
"Z  c #C7867E",
"A  c #E9856C",
"S  c #EA8272",
"D  c #EB8D74",
"F  c #EB8B7E",
"G  c #EC927D",
"H  c #C77E81",
"J  c #DD728B",
"K  c #DF7B94",
"L  c #E77581",
"P  c #E87781",
"I  c #E87983",
"U  c #E97E8A",
"Y  c #E27988",
"T  c #E77F94",
"R  c #918282",
"E  c #AC898B",
"W  c #B58387",
"Q  c #A3A09F",
"!  c #ADABAA",
"~  c #BBBAB9",
"^  c #CB8584",
"/  c #C98D88",
"(  c #C9908A",
")  c #D38A90",
"_  c #D59A9A",
"`  c #EB8C80",
"'  c #EA828D",
"]  c #EC9382",
"[  c #ED948B",
"{  c #EE9E8A",
"}  c #ED9A86",
"|  c #E78594",
" . c #EB8693",
".. c #EA8B95",
"X. c #EC8699",
"o. c #ED8A9D",
"O. c #EE9991",
"+. c #EC939D",
"@. c #EA999A",
"#. c #EFA694",
"$. c #F0A39C",
"%. c #F0AC9B",
"&. c #DD9FA5",
"*. c #ED8DA1",
"=. c #ED95A3",
"-. c #EE9AA4",
";. c #EF97A9",
":. c #ED9DAA",
">. c #C6A2A5",
",. c #DFA2A9",
"<. c #D5A5A6",
"1. c #CFBABB",
"2. c #DEBCB9",
"3. c #E7A1A8",
"4. c #EEA2AC",
"5. c #F0A6A4",
"6. c #F0A5AE",
"7. c #F1ABAD",
"8. c #F1A9A7",
"9. c #F3BCAE",
"0. c #F1B1A1",
"q. c #EBA4B1",
"w. c #E5ABB3",
"e. c #EDA9B6",
"r. c #EEADB9",
"t. c #F1A5B2",
"y. c #F1ACB4",
"u. c #F2AEB9",
"i. c #E7B0B8",
"p. c #E8B0B8",
"a. c #F2B1B6",
"s. c #F3B3BC",
"d. c #F3B9BE",
"f. c #F4C1B5",
"g. c #F5C5BA",
"h. c #F5C9BF",
"j. c #EFBAC3",
"k. c #F3B6C2",
"l. c #F4BBC4",
"z. c #F5BEC9",
"x. c #C2C1C0",
"c. c #D8D7D6",
"v. c #F4C1C6",
"b. c #F6CCC2",
"n. c #F6C3CD",
"m. c #F5C9CD",
"M. c #F8D8CF",
"N. c #F7C7D1",
"B. c #F7C9D2",
"V. c #F8C9D3",
"C. c #EBD9D9",
"Z. c #F7D2D6",
"A. c #F8D3D7",
"S. c #F9DCD5",
"D. c #F8D6DA",
"F. c #F9DADE",
"G. c #F7D4D8",
"H. c #F9DDE1",
"J. c #EBECEB",
"K. c #E1E0E0",
"L. c #FAE2E6",
"P. c #FAE1E4",
"I. c #FBE7E9",
"U. c #FCEEEB",
"Y. c #FBEAEC",
"T. c #FCECEE",
"R. c #FCEBED",
"E. c #F6E8E6",
"W. c #FDF2EF",
"Q. c #FCEFF0",
"!. c #FDF1F3",
"~. c #FDF2F1",
"^. c #FDF5F7",
"/. c #FDF7F6",
"(. c #FDF4F4",
"). c #FEF7F8",
"_. c #FEF9FA",
"`. c #FFFDFD",
"'. c #FEFCFC",
"]. c white",
"[. c #FFFEFE",
"{. c #FFFDFE",
"}. c #FFFFFF",
"|. c #F2F3F2",
/* pixels */
"].].].].].].].].].].].].].].].].].].].].].].].].].].].].].].].].].].].].].].].].].].].].].].].].].].].].].].].].].].].].].].].].",
"].].].].].].].].].].].].].].].].].].].].].].].].].].].].].].].].].].].].].].].].].].].].].].].].].].].].].].].].].].].].].].].].",
"].].].].].].].].].].].].].].].].].].].].].].].].].].].].].].].].].].].].].].].].].].]._./.].].].].].].].].].].].].].].].].].].].",
"].].].].].].].].].].].].].].].].].].].].].].].].].].].].].].].].].].T.H.~.]._._.].].].0.#.].].].].].].].].].].].].].].].].].].].",
"].].].].].].].].].].].].].].].].].].].].].].].].].].].].].].].].].H.B.F.n.Z.B.N.H.].S.9 } ].].].].].].].].].].].].].].].].].].].",
"].].].].].].].].].].].].].].].].].].].].].].].].].].].].].].].].].N.~.].Y.n.(._.B.$.s < 9.].].].].].].].].].].].].].].].].].].].",
"].].].].].].].].].].].].].].].].].].].].].].].].].].].].].].].].].n.Y.].].).].].m.8 = > 9 D I.].].].].].].].].].].].].].].].].].",
"].].].].].].].].].].].].].].].].].].].].].].].].].].].].].].].].F.z.H.].].].].(.@.< = : g A f.].].].].].].].].].].].].].].].].].",
"].].].].].].].].].].].].].].].].].].].].].].].].].].].].].].].Y.V._.].].].].]./.v.C G j 9 b._.].].].].].].].].].].].].].].].].].",
"].].].].].].].].].].].].].].].].].].].].].].].].].].].].].].].L.F.].].].].].].].].B.(.~.D { ].].].].].].].].].].].].].].].].].].",
"].].].].].].].].].].].].].].].].].].].].].].].].].].].].].].].~.a.A.D.Q.].]./.]./.N./.].W.I.].].].].].].].].].].].].].].].].].].",
"].].].].].].].].].].].].].].].].].].].].].].].].].].].].].].].g.8 i C Y.]._.z.B.B.L.].].].].].].].].].].].].].].].].].].].].].].",
"].].].].].].].].].].].].].].].].].].].].].].].].].].].].]._.b.n = = i Z.'.L.N.~./.].].].].].].].].].].].].].].].].].].].].].].].",
"].].].].].].].].].].].].].].].].].].].].].].].].].].].].].g.5 > > > A B.B.V.~.].].].].].].].].].].].].].].].].].].].].].].].].].",
"].].].].].].].].].].].].].].].].].].].].].].].].].].].].].{ = > > > { ]._.].].].].].].].].].].].].].].].].].].].].].].].].].].].",
"].].].].].].].].].].].].].].].].].].].].].].].].].].].U.M.n > > > > A S.~.].].].].].].].].].].].].].].].].].].].].].].].].].].].",
"].].].].].].].].].].].].].].].].].].].].].].].].U.f.D s 5 > > > > > > 7 f ] b.~.].].].].].].].].].].].].].].].].].].].].].].].].",
"].].].].].].].].].].].].].].].].].].].].].].U.%.f < = : > > > > > > > > : : 1 j 9./.].].].].].].].].].].].].].].].].].].].].].].",
"].].].].].].].].].].].].].].].].].].].].].h.f > : > > > > > > h d > > > > > > = > n S.].].].].].].].].].].].].].].].].].].].].].",
"].].].].].].].].].].].].].]./.H.T.].]./.#.7 : > > > > > : 8 [ n.l.S 5 : > > > > > : 9 9.].].].Y.P._.].].].].].].].].].].].].].].",
"].].].].].].].].].].].].]./.y.+.-.B.U.G > = > > > : > 8 m a.B.N.B.N.8.h 5 > : > > > = 1 %.~.n.-.+.s._.].].].].].].].].].].].].].",
"].].].].].].].].].].].].].B.-.n.l.:.@.h s 8 8 8 i h [ s.N.B.N.N.N.N.B.n.7.` g 9 8 8 9 d m -.4.z.n.-.D.].].].].].].].].].].].].].",
"].].].].].].].].].].].]._.6.s.B.B.n.l.n.v.d.s.d.z.N.N.n.N.B.N.N.N.B.B.n.n.B.N.z.s.s.k.n.n.l.n.B.B.u.y.].].].].].].].].].].].].].",
"].].].].].].].].].].].].L.-.n.N.N.B.B.N.N.B.B.B.d.F g d n 5.n.N.B.z.[ h d h O.n.V.B.B.N.N.B.B.N.N.n.-.T.].].].].].].].].].].].].",
"].].].].].].].].].].].].m.4.B.N.N.s.s.N.B.N.B.8.9 > : : : 6 ` N.l.h > : : : > h k.B.N.B.N.s.k.N.N.N.:.G.].].].].].].].].].].].].",
"].].].].].].].].].].].].s.y.B.n.t.-.l.l.w.V.s.9 = * * % * * 1 $.S = * * & * * = n n.n.w.n.k.=.y.N.B.6.l.].].].].].].].].].].].].",
"].].].].].].].].].].].].6.s.n.:.-.n.n._ c i.b - y x Z ( Z a , 4 2 3 x / ( v a 2 , @.,.c ,.B.z.+.6.n.y.a.].].].].].].].].].].].].",
"].].].].].].].].].].]._.4.:.+.+.n.N.&.t 0 ; r 2.E._.].].]./.C.^ _ E._.].].]./.C.<.w $ q c p.B.z.o.+.-.y.].].].].].].].].].].].].",
"].].].].].].].].].].].].y.U ' s.B.B.w.v r ) d.].].].].].].J.|.L.Q.J.|.].].].].]./.3.H r ^ j.B.B.y.' U d.].].].].].].].].].].].].",
"].].].].].].].].].].].].Y.Z.:.z.N.N.B.n.N.z.z.].].].].].c.+ ! P.1.@ ~ ].].].].]./.y.N.n.N.B.N.B.l.t.D.Q.].].].].].].].].].].].].",
"].].].].].].].].].].].].].I.:.n.N.N.N.N.B.z.l.].].].].].Q   + 1.R   # c.].].].].Q.y.N.N.N.N.N.N.n.6./.].].].].].].].].].].].].].",
"].].].].].].].].].].].].].D.-.N.N.N.N.N.N.n.y.~.].].].].x.o X <.E . O K.].].].].F.s.B.N.N.N.N.N.n.4.I.].].].].].].].].].].].].].",
"].].].].].].].].].].].].].B.-.N.N.N.N.N.N.B.s.B.].].].].~.W r I Y e >.].].].]._.s.z.B.N.N.N.N.B.N.4.H.].].].].].].].].].].].].].",
"].].].].].].].].].].].].].m.=.n.N.N.N.N.N.N.n.y.Z._.].'.d.I I I I I ' A.].].~.v.s.N.N.N.N.N.n.z.k.:.F.].].].].].].].].].].].].].",
"].].].].].].].].].].].].].m.+.z.B.N.N.N.N.N.N.n.u.s.z.s.' P P I I P P ..l.l.s.s.N.B.B.B.B.n.t.=.*.X.H.].].].].].].].].].].].].].",
"].].].].].].].].].].].].].Z.Y q.N.B.B.N.N.N.N.N.N.n.z.:.P N P I I B B I s.z.n.B.n.k.s.l.n.t.o.o.o.X.L.].].].].].].].].].].].].].",
"].].].].].].].].].].].].].F.Y K s.l.l.n.N.N.N.N.N.N.B.6.V z V I I N M I k.B.N.s.;.o.o.*.;.*.o.o.o.o.T.].].].].].].].].].].].].].",
"].].].].].].].].].].].].].Y.| J X.o.*.;.k.N.N.N.N.N.B.s.I N V I I N B  .n.B.z.=.o.o.o.o.o.o.X.X.X.-./.].].].].].].].].].].].].].",
"].].].].].].].].].].].].]._.-.Y 6.-.X.o.=.z.B.N.N.N.N.n.+.P I I I P I t.N.B.s.o.o.o.o.o.o.X.:.:.U s.].].].].].].].].].].].].].].",
"].].].].].].].].].].].].].].l.U z.k.X.o.o.s.B.N.N.N.N.N.z.=.U I I ' 6.n.N.B.s.o.o.o.o.o.o.X.z.s.U Z.].].].].].].].].].].].].].].",
"].].].].].].].].].].].].].].P...z.n.o.o.o.u.B.N.N.N.N.N.N.z.k.y.y.k.n.N.N.B.k.*.o.o.o.o.X.+.n.s.+.Q.].].].].].].].].].].].].].].",
"].].].].].].].].].].].].].].).6.z.n.+.X.*.k.B.N.N.N.N.N.B.8.O.z.d.] a.B.N.N.n.;.o.o.o.o.X.-.B.k.a.].].].].].].].].].].].].].].].",
"].].].].].].].].].].].].].]./.t.n.N.=.T ;.n.N.N.N.N.N.N.N.v.S s d [ n.N.N.N.N.u.o.o.o.o.X.:.B.l.a.].].].].].].].].].].].].].].].",
"].].].].].].].].].].].].].].T.6.n.N.-.J :.N.N.N.N.N.N.N.N.B.n.$.8.N.N.N.N.N.N.n.;.o.o.o.X.:.B.z.6.).].].].].].].].].].].].].].].",
"].].].].].].].].].].].].].].H.6.N.N.-.J :.l.N.N.N.N.N.N.N.N.N.V.B.N.N.N.N.N.N.B.l.=.o.o.X.:.B.n.4.Y.].].].].].].].].].].].].].].",
"].].].].].].].].].].].].].].n.t.B.N.-.| q.q.s.n.N.N.N.N.N.N.N.N.N.N.N.N.N.N.N.N.N.k.;.o. .:.N.B.6.Z.].].].].].].].].].].].].].].",
"].].].].].].].].].].].].]._.6.s.B.N.=.' =.q.q.r.l.n.N.N.N.N.N.N.N.N.N.N.N.N.N.N.N.B.l.X.U -.N.B.u.s.].].].].].].].].].].].].].].",
"].].].].].].].].].].].].].I.+.z.B.n.6.n.o.+.4.q.q.r.k.n.N.B.B.B.N.N.N.N.B.B.N.n.n.s.=.-.n.:.n.B.z.:.~.].].].].].].].].].].].].].",
"].].].].].].].].].].].].].l.z U o.o.+./.P.-. .-.q.q.q.e.r.k.l.z.n.n.n.n.z.l.k.r.-. .6.Y.T.' ..X.I M Z.].].].].].].].].].].].].].",
"].].].].].].].].].].].].].+.u p p u ..].].(.l.....-.4.q.q.q.q.e.e.r.r.e.e.:.=...+.m._.]./.I u p p p 6.].].].].].].].].].].].].].",
"].].].].].].].].].].].].(.V u p p p t.].].].].I.d.+. ...=.-.:.:.:.:.-.=... .+.v.T.].].].].+.p p p u  .'.].].].].].].].].].].].].",
"].].].].].].].].].].].].(.U L -.z l D.].].].].].].~.G.a.'  . .' '  . .' s.F./.].].].].].].v.p M -.N +._.].].].].].].].].].].].].",
"].].].].].].].].].].].].].Y.Q.'.s.y._.].].].].].].].].~.-.k.z.=.+.z.l.-.Y.].].].].].].].].~.4.n.].Y.Q.].].].].].].].].].].].].].",
"].].].].].].].].].].].].].].].].].].].].].].].].].].].I.=.n.B.:.=.B.N.-.H.].].].].].].].].].].].].].].].].].].].].].].].].].].].",
"].].].].].].].].].].].].].].].].].].].].].].].].].].].D.-.N.B.:.=.N.N.:.B.].].].].].].].].].].].].].].].].].].].].].].].].].].].",
"].].].].].].].].].].].].].].].].].].].].].].].].].].].m.:.N.N.-.=.N.B.4.v.].].].].].].].].].].].].].].].].].].].].].].].].].].].",
"].].].].].].].].].].].].].].].].].].].].].].].].].].].l.6.V.B.-.-.B.V.t.s.].].].].].].].].].].].].].].].].].].].].].].].].].].].",
"].].].].].].].].].].].].].].].].].].].].].].].].].].].4. .=.-.' ' :.-...:.].].].].].].].].].].].].].].].].].].].].].].].].].].].",
"].].].].].].].].].].].].].].].].].].].].].].].].].]._. .p p p p k p p p U ).].].].].].].].].].].].].].].].].].].].].].].].].].].",
"].].].].].].].].].].].].].].].].].].].].].].].].].]._.U u z l p p p z p L /.].].].].].].].].].].].].].].].].].].].].].].].].].].",
"].].].].].].].].].].].].].].].].].].].].].].].].].].].4. .D.4.P P -.G...-._.].].].].].].].].].].].].].].].].].].].].].].].].].].",
"].].].].].].].].].].].].].].].].].].].].].].].].].].].)._.].]./.(._.]._./.].].].].].].].].].].].].].].].].].].].].].].].].].].].",
"].].].].].].].].].].].].].].].].].].].].].].].].].].].].].].].].].].].].].].].].].].].].].].].].].].].].].].].].].].].].].].].].",
"].].].].].].].].].].].].].].].].].].].].].].].].].].].].].].].].].].].].].].].].].].].].].].].].].].].].].].].].].].].].].].].]."
};
