/* XPM */
static char *_a02d9b3b29f482c96a756b743e2db4aLkVi7KxKfR6bK5tM[] = {
/* columns rows colors chars-per-pixel */
"64 64 194 2 ",
"   c #1C1814",
".  c #231E1B",
"X  c #2F292A",
"o  c #403C3B",
"O  c #3B1457",
"+  c #3C1659",
"@  c #3E195B",
"#  c #3E3043",
"$  c #401658",
"%  c #431A5B",
"&  c #4B1B5B",
"*  c #531D56",
"=  c #45215F",
"-  c #56215E",
";  c #5A235F",
":  c #4D3C56",
">  c #672356",
",  c #76315D",
"<  c #7B325C",
"1  c #452262",
"2  c #4B2966",
"3  c #5E2460",
"4  c #51206F",
"5  c #572E6D",
"6  c #4F2570",
"7  c #512671",
"8  c #522C74",
"9  c #5A2F78",
"0  c #533276",
"q  c #5D3A75",
"w  c #553579",
"e  c #5E337A",
"r  c #57397B",
"t  c #593D7D",
"y  c #52316D",
"u  c #632661",
"i  c #6B2A63",
"p  c #742D65",
"a  c #6D3466",
"s  c #64366C",
"d  c #693569",
"f  c #793066",
"g  c #713565",
"h  c #652F71",
"j  c #613872",
"k  c #64397F",
"l  c #62367D",
"z  c #5B5857",
"x  c #454240",
"c  c #5E4175",
"v  c #63447A",
"b  c #664A7C",
"n  c #665C6A",
"m  c #6C686B",
"M  c #8D243D",
"N  c #942B46",
"B  c #962E49",
"V  c #9A2F4B",
"C  c #96314C",
"Z  c #9B314D",
"A  c #8D3152",
"S  c #833259",
"D  c #8B3459",
"F  c #933453",
"G  c #993554",
"H  c #9C3B55",
"J  c #9C3659",
"K  c #9D395B",
"L  c #94365A",
"P  c #8C2C4D",
"I  c #A33553",
"U  c #A43C5B",
"Y  c #AC3C5C",
"T  c #A23955",
"R  c #B03F5F",
"E  c #843568",
"W  c #9B3F6E",
"Q  c #943C6C",
"!  c #A83E63",
"~  c #B23F61",
"^  c #9D435B",
"/  c #A4415C",
"(  c #AB405E",
")  c #9F406E",
"_  c #A34264",
"`  c #A64A62",
"'  c #A5466A",
"]  c #AB496B",
"[  c #AB4367",
"{  c #B54164",
"}  c #B94467",
"|  c #BC466A",
" . c #B44B6E",
".. c #BE496C",
"X. c #B3456B",
"o. c #AA556B",
"O. c #AA5B6E",
"+. c #A75167",
"@. c #AC4671",
"#. c #A54370",
"$. c #B44A73",
"%. c #BB4C73",
"&. c #AC5D71",
"*. c #AF6477",
"=. c #B4657A",
"-. c #B36A7D",
";. c #C04B6F",
":. c #C44D72",
">. c #C55076",
",. c #C85177",
"<. c #C95278",
"1. c #663B80",
"2. c #693E83",
"3. c #6C4385",
"4. c #6A4D80",
"5. c #6F4888",
"6. c #724B8A",
"7. c #6C5183",
"8. c #74558A",
"9. c #7E5994",
"0. c #795590",
"q. c #7D6490",
"w. c #815E96",
"e. c #8C6C9F",
"r. c #846498",
"t. c #88719A",
"y. c #B86C81",
"u. c #B77485",
"i. c #BA7A8A",
"p. c #8E6EA1",
"a. c #9474A5",
"s. c #927DA2",
"d. c #987AA9",
"f. c #979498",
"g. c #BC818F",
"h. c #BC8090",
"j. c #9C84AC",
"k. c #9985A8",
"l. c #A187B1",
"z. c #AC95BA",
"x. c #AA99B6",
"c. c #B29CBE",
"v. c #BEA2BB",
"b. c #C38B9A",
"n. c #C08695",
"m. c #C5919E",
"M. c #C799A4",
"N. c #C89AA5",
"B. c #C998A4",
"V. c #CFA3AE",
"C. c #D2ABB4",
"Z. c #D5B2BA",
"A. c #C1A7BF",
"S. c #BEACC9",
"D. c #BAA7C5",
"F. c #BEB2C8",
"G. c #C0AECA",
"H. c #C3B3CD",
"J. c #DABAC2",
"K. c #CBBBD3",
"L. c #CDCDCC",
"P. c #DEC1C9",
"I. c #CEC2D5",
"U. c #D5CADC",
"Y. c #D4C8DB",
"T. c #D8D7D9",
"R. c #E2C9CF",
"E. c #E1C6CD",
"W. c #E4CCD2",
"Q. c #E7D3D8",
"!. c #E9D6DB",
"~. c #DDD4E2",
"^. c #DACFE0",
"/. c #E2DBE6",
"(. c #EDDDE1",
"). c #E5DEE9",
"_. c #EFE1E4",
"`. c #E7E1EB",
"'. c #EAE4ED",
"]. c #ECEBEC",
"[. c gray89",
"{. c #F5EDEF",
"}. c #F1E4E8",
"|. c #EFEBF1",
" X c #F3EEF2",
".X c #F5F3F7",
"XX c #F5F2F4",
"oX c #F8F3F4",
"OX c #F7F4F8",
"+X c #F9F7FA",
"@X c white",
"#X c #FEFEFE",
"$X c #FDFCFD",
"%X c #FFFFFF",
/* pixels */
"@X@X@X@X@X@X@X@X@X@X@X@X@X@X@X@X@X@X@X@X@X@X@X@X@X@X@X@X@X@X@X@X@X@X@X@X@X@X@X@X@X@X@X@X@X@X@X@X@X@X@X@X@X@X@X@X@X@X@X@X@X@X@X@X",
"@X@X@X@X@X@X@X@X@X@X@X@X@X@X@X@X@X@X@X@X@X@X@X@X@X@X@X@X@X@X@X@X@X@X@X@X@X@X@X@X@X@X@X@X@X@X@X@X@X@X@X@X@X@X@X@X@X@X@X@X@X@X@X@X",
"@X@X@X@X@X@X@X@X@X@X@X@X@X@X@X@X@X@X@X@X@X@X@X@X@X@X@X@X@X@X@X@X@X@X@X@X@X@X@X@X@X@X@X@X@X@X@X@X@X@X@X@X@X@X@X@X@X@X@X@X@X@X@X@X",
"@X@X@X@X@X@X@X@X@X@X@X@X@X@X@X@X@X@X@X@X@X@X@X@X@X@X@X@X@X@X@X@X@X@X@X@X@X@X@X@X@X@X@X@X@X@X@X@X@X@X@X@X@X@X@X@X@X@X@X@X@X@X@X@X",
"@X@X@X@X@X@X@X@X@X@X@X@X@X@X@X@X@X@X@X@X@X@X@X@X@X@X@X@X@X@X.XS.G.OX@X@X@X@X@X@X@X@X@X@X@X@X@X@X@X@X@X@X@X@X@X@X@X@X@X@X@X@X@X@X",
"@X@X@X@X@X@X@X@X@X@X@X@X@X@X@X@X@X@X@X@X@X@X@X@X@X@X@X@X@X@Xz.4 4 z.@X@X@X@X@X@X@X@X@X@X@X@X@X@X@X@X@X@X@X@X@X@X@X@X@X@X@X@X@X@X",
"@X@X@X@X@X@X@X@X@X@X@X@X@X@X@X@X@X@X@X@X@X@X@X@X@X@X@X@X@X~.l w 0 k ~.@X@X@X@X@X@X@X@X@X@X@X@X@X@X@X@X@X@X@X@X@X@X@X@X@X@X@X@X@X",
"@X@X@X@X@X@X@X@X@X@X@X@X@X@X@X@X@X@X@X@X@X@X@X@X@X@X@X@X+Xe.7 t t 7 p.+X@X@X@X@X@X@X@X@X@X@X@X@X@X@X@X@X@X@X@X@X@X@X@X@X@X@X@X@X",
"@X@X@X@X@X@X@X@X@X@X@X@X@X@X@X@X@X@X@X@X@X@X@X@X@X@X@X@XS.7 r t t r 8 H.@X@X@X@X@X@X@X@X@X@X@X@X@X@X@X@X@X@X@X@X@X@X@X@X@X@X@X@X",
"@X@X@X@X@X@X@X@X@X@X@X@X@X@X@X@X@X@X@X@X@X@X@X@X@X@X@X`.3.8 t t t t 8 6.'.@X@X@X@X@X@X@X@X@X@X@X@X@X@X@X@X@X@X@X@X@X@X@X@X@X@X@X",
"@X@X@X@X@X@X@X@X@X@X@X@X@X@X@X@X@X@X@X@X@X@X@X@X@X@X@Xj.7 t t t t t t 7 l.@X@X@X@X@X@X@X@X@X@X@X@X@X@X@X@X@X@X@X@X@X@X@X@X@X@X@X",
"@X@X@X@X@X@X@X@X@X@X@X@X@X.Xz.j.G.~. X@X@X@X@X@X@X@XY.e w t t t t t t w e U.@X@X@X@X@X@X@X X~.S.j.z.+X@X@X@X@X@X@X@X@X@X@X@X@X@X",
"@X@X@X@X@X@X@X@X@X@X@X@X@X/.e 6 8 e 6.e.z.I.`.+X@X.Xw.7 t t t t t t t t 7 r.OX@X+X`.K.z.e.6.e 8 6 l ).@X@X@X@X@X@X@X@X@X@X@X@X@X",
"@X@X@X@X@X@X@X@X@X@X@X@X@X`.1.w t r w 8 7 8 1.9.l.a.7 r t t t t t t t t r 7 a.l.9.k 7 7 8 w r t w 2.'.@X@X@X@X@X@X@X@X@X@X@X@X@X",
"@X@X@X@X@X@X@X@X@X@X@X@X@X|.2.w t t t t t t w 8 6 7 w t t t t t t t t t t w 7 7 8 w t t t t t t 0 3. X@X@X@X@X@X@X@X@X@X@X@X@X@X",
"@X@X@X@X@X@X@X@X@X@X@X@X@XXX6.0 t t t t t t t t t t t t t t t t t t t t t t t t t t t t t t t t 0 0..X@X@X@X@X@X@X@X@X@X@X@X@X@X",
"@X@X@X@X@X@X@X@X@X@X@X@X@XOX9.0 t t t t t t t t t t t t t t t t t t t t t t t t t t t t t t t t 8 r.+X@X@X@X@X@X@X@X@X@X@X@X@X@X",
"@X@X@X@X@X@X@X@X@X@X@X@X@X$Xr.8 t t t t t t t t t t t t t t t t t t t t t t t t t t t t t t t t 8 p.@X@X@X@X@X@X@X@X@X@X@X@X@X@X",
"@X@X@X@X@X@X@X@X@X@X@X@X@X@Xa.8 t t t t t t t t r s a g d j t t t t s d a d j t t t t t t t t t 8 d.@X@X@X@X@X@X@X@X@X@X@X@X@X@X",
"@X@X@X@X@X@X@X@X@X@X@X@X@X@Xj.8 t t t t t t r a L ! } } { K < q j S U { { ~ K S d t t t t t t t 8 l.@X@X@X@X@X@X@X@X@X@X@X@X@X@X",
"@X@X@X@X@X@X@X@X@X@X@X@X@X@Xz.8 t t t t t j D { :.<.<.:.} ;.| L K ;...} >.<.,.:.Y S j t t t t t 8 c.@X@X@X@X@X@X@X@X@X@X@X@X@X@X",
"@X@X@X@X@X@X@X@X@X@X@X@X@X Xp.8 t t t t d K :.<.<.<...V M Y <.:.:.<.Y M Z ..<.<.<...L d t t t t 8 a.XX@X@X@X@X@X@X@X@X@X@X@X@X@X",
"@X@X@X@X@X@X@X@X@X@X@X$XK.9.8 r t t r s U :.<.<.<.:.V N { :.<.<.<.<.:.{ N V :.<.<.<.:.K s r t t r 8 9.I.@X@X@X@X@X@X@X@X@X@X@X@X",
"@X@X@X@X@X@X@X@X@X@X).d.9 8 t t t 0 @ * @.<.<.<.<.:.Y :.<.<.<.<.<.<.<.<.;.R >.<.<.<.<.#.* % 0 t t t 8 9 d.`.@X@X@X@X@X@X@X@X@X@X",
"@X@X@X@X@X@X@X@X.XD.3.7 r t t r q y + O 3 $.<.<.>.$.$.%.>.<.<.<.<.<.<.>.%.$.%.>.<.<.@.- O @ 5 q t t t r 7 3.D.OX@X@X@X@X@X@X@X@X",
"@X@X@X@X@X@X@XU.w.8 w t t t j S J A > + O 3 @.Q u & % & i W >.<.<.>.W u & % & u W #.- O @ > F J S q t t t w 8 r.U.@X@X@X@X@X@X@X",
"@X@X@X@X@X@X|.6.7 t t t t t < } <.:.X.i + + & + 2 7.q.b 1 $ E >.:.f + 1 4.q.7.1 + % O + p X.:.<.{ , t t t t t 7 6. X@X@X@X@X@X@X",
"@X@X@X@X@X@XXX9.8 t t t t t S :.<.<.<.$.; + O 8.U.OX$XXXH.v + E E + 4.I..X$X.XI.b O + u %.<.<.<.;.< t t t t t 7 w..X@X@X@X@X@X@X",
"@X@X@X@X@X@X@X~.6.8 t t t t a Y :.<.<.<.Q O 4.'.@X@X@X@X@X~.q % $ v ).@X@X@X@X@X/.q + W <.<.<.:.U d t t t t 8 8./.@X@X@X@X@X@X@X",
"@X@X@X@X@X@X@X@X~.5.8 t t t t , Y ,.<.<.f @ F.@X@X@X@X@X].T.j.O + x.T.XX@X@X@X@X@Xc.O E <.<.>.Y , t t t t 8 6.~.@X@X@X@X@X@X@X@X",
"@X@X@X@X@X@X@X@X@XU.2.0 t t t < | <.<.>.3 y ).@X@X@X@X].z m F.% 2 m x T.@X@X@X@X@XT.1 i <.<.<.| < t t t 8 3.^.@X@X@X@X@X@X@X@X@X",
"@X@X@X@X@X@X@X@X@X@XY.2.0 t t S :.<.<.>.; y `.@X@X@X@XL.. X n = = X . n ].@X@X@X@X~.2 i >.<.<.:.D t t 0 3.Y.@X@X@X@X@X@X@X@X@X@X",
"@X@X@X@X@X@X@X@X@X@X@XK.l 0 q A :.<.<.<.i 1 I.@X@X@X@X[.o   : % % #   z XX@X@X@X@XF.@ f <.<.<.>.F q 0 k I.@X@X@X@X@X@X@X@X@X@X@X",
"@X@X@X@X@X@X@X@X@X@X@X@XH.e 5 A %.<.<.<.Q O r.+X@X@X@X@XL.f.c + + v f.T.@X@X@X@XXX8.+ ) <.<.<.,.G 5 e H.@X@X@X@X@X@X@X@X@X@X@X@X",
"@X@X@X@X@X@X@X@X@X@X@X@X@XS.h P  .<.<.<.%.u @ k.|.@X@X@X'.t.@ i i @ s.|.@X@X@X].s.@ i >.<.<.<.,.G h H.@X@X@X@X@X@X@X@X@X@X@X@X@X",
"@X@X@X@X@X@X@X@X@X@X@X@X@X@Xv.F ] >.<.<.<.@.- @ b k.x.s.c + * K J * + v k.x.k.v @ 3 $.<.<.<.<.>.K A.@X@X@X@X@X@X@X@X@X@X@X@X@X@X",
"@X@X@X@X@X@X@X@X@X@X@X@X@X@X{.+._ >.<.<.<.<.$.p & O O O & E G M M G f & O O O & f %.<.<.<.<.<.:.o.{.@X@X@X@X@X@X@X@X@X@X@X@X@X@X",
"@X@X@X@X@X@X@X@X@X@X@X@X@X@X+X*.K $.<.<.<.<.<.>.$.W Q ' %.<.:.B V :.<.$.W Q ) $.<.<.<.<.<.<.<...-.+X@X@X@X@X@X@X@X@X@X@X@X@X@X@X",
"@X@X@X@X@X@X@X@X@X@X@X@X@X@X@Xb.G ] >.<.<.<.<.<.<.<.<.<.<.<.<.{ { <.<.<.<.<.<.<.<.<.<.<.<.<.<.{ b.@X@X@X@X@X@X@X@X@X@X@X@X@X@X@X",
"@X@X@X@X@X@X@X@X@X@X@X@X@X@X@XP.H '  .<.<.<.<.<.<.<.<.<.<.%.' ! ! ' %.<.<.<.<.<.<.<.<.<.<.<.<.( P.@X@X@X@X@X@X@X@X@X@X@X@X@X@X@X",
"@X@X@X@X@X@X@X@X@X@X@X@X@X@X@XQ.^ _ ] %.<.<.<.<.<.<.<.<.<.:.Q - ; Q >.<.<.<.<.<.<.<.<.<.<.<.;.` !.@X@X@X@X@X@X@X@X@X@X@X@X@X@X@X",
"@X@X@X@X@X@X@X@X@X@X@X@X@X@XR.+.I G ' ] >.<.<.<.<.<.<.<.<.<.<.@.@.<.<.<.<.<.<.<.<.<.<.<.<.<.Y I o.W.@X@X@X@X@X@X@X@X@X@X@X@X@X@X",
"@X@X@X@X@X@X@X@X@X@X@X@X@XoX*.{ :.V _ ' ] >.<.<.<.<.<.<.<.<.<.<.<.<.<.<.<.<.<.<.<.<.<.<.<.;.I :.{ =.oX@X@X@X@X@X@X@X@X@X@X@X@X@X",
"@X@X@X@X@X@X@X@X@X@X@X@X@XP.U ,.:.H G _ ' ] >.<.<.<.<.<.<.<.<.<.<.<.<.<.<.<.<.<.<.<.<.<.>.U H :.,.U R.@X@X@X@X@X@X@X@X@X@X@X@X@X",
"@X@X@X@X@X@X@X@X@X@X@X@X@XB.Y <.;.y.u.G ' ' ] %.<.<.<.<.<.<.<.<.<.<.<.<.<.<.<.<.<.<.<.<.Y u.y.:.<.Y N.@X@X@X@X@X@X@X@X@X@X@X@X@X",
"@X@X@X@X@X@X@X@X@X@X@X@X@Xi.{ <.:.=.(.&.G ' ' ]  .>.<.<.<.<.<.<.<.<.<.<.<.<.<.<.<.<.<.~ &.!.=.:.<.{ h.@X@X@X@X@X@X@X@X@X@X@X@X@X",
"@X@X@X@X@X@X@X@X@X@X@X@X@X-.} <.,.[ W.(.O.G ' ' ' ] %.>.,.<.<.<.<.<.<.<.<.<.<.<.>.%.U O.(.R.[ ,.<.{ u.@X@X@X@X@X@X@X@X@X@X@X@X@X",
"@X@X@X@X@X@X@X@X@X@X@X@X@Xu.{ <.<.| -.oX_.-.C _ ' ' ' ]  .%.%.>.>.>.>.>.>.:.%.$.[ G -._. X=.| <.<.{ i.@X@X@X@X@X@X@X@X@X@X@X@X@X",
"@X@X@X@X@X@X@X@X@X@X@X@X@XM.Y <.<.<.( Z.@X Xb.H G _ ' ' ' ' ' ] ] ] ] ] ] ] _ G H m.oX@XC.Y <.<.<.Y N.@X@X@X@X@X@X@X@X@X@X@X@X@X",
"@X@X@X@X@X@X@X@X@X@X@X@X@XW./ :.<.<.{ m.@X@X@XW.u.H G U _ ' ' ' ' ' ' _ U G H u.W.@X@X@Xb.{ <.<.:./ Q.@X@X@X@X@X@X@X@X@X@X@X@X@X",
"@X@X@X@X@X@X@X@X@X@X@X@X@X$Xn.I | ../ P.@X@X@X@X$XQ.g.N B B C G G Z B B C n.Q.$X@X@X@X@XJ.( ..| I b.@X@X@X@X@X@X@X@X@X@X@X@X@X@X",
"@X@X@X@X@X@X@X@X@X@X@X@X@X@XoXm.o.&.C.$X@X@X@X@X@X@XV.I ..I u.V.V.*.I ..T J.@X@X@X@X@X@X$XC.&.o.M.oX@X@X@X@X@X@X@X@X@X@X@X@X@X@X",
"@X@X@X@X@X@X@X@X@X@X@X@X@X@X@X@XoXoX@X@X@X@X@X@X@X@Xu.} <.~ b.@X@Xu.} <.~ b.@X@X@X@X@X@X@X@XoXoX@X@X@X@X@X@X@X@X@X@X@X@X@X@X@X@X",
"@X@X@X@X@X@X@X@X@X@X@X@X@X@X@X@X@X@X@X@X@X@X@X@X@X}.` :.<...o. X_.` :.<.| O.oX@X@X@X@X@X@X@X@X@X@X@X@X@X@X@X@X@X@X@X@X@X@X@X@X@X",
"@X@X@X@X@X@X@X@X@X@X@X@X@X@X@X@X@X@X@X@X@X@X@X@X@XZ.Y <.<.,.U Z.N.Y <.<.>.U E.@X@X@X@X@X@X@X@X@X@X@X@X@X@X@X@X@X@X@X@X@X@X@X@X@X",
"@X@X@X@X@X@X@X@X@X@X@X@X@X@X@X@X@X@X@X@X@X@X@X@X$Xy.| <.<.<.{ &.+.| <.<.<.{ n.@X@X@X@X@X@X@X@X@X@X@X@X@X@X@X@X@X@X@X@X@X@X@X@X@X",
"@X@X@X@X@X@X@X@X@X@X@X@X@X@X@X@X@X@X@X@X@X@X@X@XQ./ :.<.<.<.:.B Z >.<.<.<.:.` }.@X@X@X@X@X@X@X@X@X@X@X@X@X@X@X@X@X@X@X@X@X@X@X@X",
"@X@X@X@X@X@X@X@X@X@X@X@X@X@X@X@X@X@X@X@X@X@X@X@XW.H :.<.<.<...N V :.<.<.<.;./ !.@X@X@X@X@X@X@X@X@X@X@X@X@X@X@X@X@X@X@X@X@X@X@X@X",
"@X@X@X@X@X@X@X@X@X@X@X@X@X@X@X@X@X@X@X@X@X@X@X@XoX-.Z I I I Z u.-.Z I I I Z i.+X@X@X@X@X@X@X@X@X@X@X@X@X@X@X@X@X@X@X@X@X@X@X@X@X",
"@X@X@X@X@X@X@X@X@X@X@X@X@X@X@X@X@X@X@X@X@X@X@X@X@X}.C.M.M.N.J.oX{.Z.N.M.N.Z.{.@X@X@X@X@X@X@X@X@X@X@X@X@X@X@X@X@X@X@X@X@X@X@X@X@X",
"@X@X@X@X@X@X@X@X@X@X@X@X@X@X@X@X@X@X@X@X@X@X@X@X@X@X@X@X@X@X@X@X@X@X@X@X@X@X@X@X@X@X@X@X@X@X@X@X@X@X@X@X@X@X@X@X@X@X@X@X@X@X@X@X",
"@X@X@X@X@X@X@X@X@X@X@X@X@X@X@X@X@X@X@X@X@X@X@X@X@X@X@X@X@X@X@X@X@X@X@X@X@X@X@X@X@X@X@X@X@X@X@X@X@X@X@X@X@X@X@X@X@X@X@X@X@X@X@X@X",
"@X@X@X@X@X@X@X@X@X@X@X@X@X@X@X@X@X@X@X@X@X@X@X@X@X@X@X@X@X@X@X@X@X@X@X@X@X@X@X@X@X@X@X@X@X@X@X@X@X@X@X@X@X@X@X@X@X@X@X@X@X@X@X@X",
"@X@X@X@X@X@X@X@X@X@X@X@X@X@X@X@X@X@X@X@X@X@X@X@X@X@X@X@X@X@X@X@X@X@X@X@X@X@X@X@X@X@X@X@X@X@X@X@X@X@X@X@X@X@X@X@X@X@X@X@X@X@X@X@X"
};
