/* XPM */
static char *ea2e6fd953974f35e04b0eda4e053470uVjwpveQImNHphjI[] = {
/* columns rows colors chars-per-pixel */
"64 64 204 2 ",
"   c #030404",
".  c #121212",
"X  c #363636",
"o  c #272727",
"O  c #5C372B",
"+  c #5E382B",
"@  c #563C33",
"#  c #693926",
"$  c #63392A",
"%  c #6B3C2A",
"&  c #733D28",
"*  c #744027",
"=  c #7D4326",
"-  c #674336",
";  c #6E4F44",
":  c #775447",
">  c #665048",
",  c #696868",
"<  c #717171",
"1  c #545555",
"2  c #823F2C",
"3  c #AB461F",
"4  c #B74B1D",
"5  c #BB4C1C",
"6  c #B3471E",
"7  c #A9531D",
"8  c #B5541C",
"9  c #BC531E",
"0  c #B7591B",
"q  c #B95A1A",
"w  c #8D4922",
"e  c #86462B",
"r  c #944B23",
"t  c #974925",
"y  c #A44225",
"u  c #AA4624",
"i  c #A44A23",
"p  c #AC4A22",
"a  c #A3462A",
"s  c #A64A2D",
"d  c #B44D22",
"f  c #B14B25",
"g  c #AD5225",
"h  c #AE512C",
"j  c #B45422",
"k  c #BB5423",
"l  c #B95C21",
"z  c #B5552C",
"x  c #BC5A2D",
"c  c #B75821",
"v  c #A64C32",
"b  c #AA5137",
"n  c #AC553A",
"m  c #B45B35",
"M  c #BC6420",
"N  c #BB623C",
"B  c #BD6036",
"V  c #C44F1A",
"C  c #C95716",
"Z  c #CB5A16",
"A  c #C5541A",
"S  c #CA531A",
"D  c #C45B1B",
"F  c #CB5B19",
"G  c #D35D14",
"H  c #D15B18",
"J  c #D85F16",
"K  c #DE640F",
"L  c #CE6116",
"P  c #C36A1D",
"I  c #D56116",
"U  c #DC6413",
"Y  c #D36118",
"T  c #C7711D",
"R  c #CD761B",
"E  c #D37D1B",
"W  c #E1660F",
"Q  c #E4680F",
"!  c #E16712",
"~  c #E36912",
"^  c #C45C24",
"/  c #C25D29",
"(  c #CA5E20",
")  c #CE6324",
"_  c #CB6329",
"`  c #C26232",
"'  c #CA6C3A",
"]  c #CF713D",
"[  c #D36622",
"{  c #AA5741",
"}  c #AE614E",
"|  c #B56244",
" . c #B96441",
".. c #BE6945",
"X. c #B6664B",
"o. c #AB6556",
"O. c #B66C55",
"+. c #B56D5A",
"@. c #BB725A",
"#. c #B16F62",
"$. c #BC7C6B",
"%. c #B97765",
"&. c #B87C71",
"*. c #CA7245",
"=. c #C27352",
"-. c #CB7D57",
";. c #C37D63",
":. c #DF8517",
">. c #DE8A17",
",. c #D6811A",
"<. c #DC8419",
"1. c #EC960F",
"2. c #EF990F",
"3. c #F09B0E",
"4. c #E08717",
"5. c #E38B15",
"6. c #E38B1A",
"7. c #E69115",
"8. c #EA9313",
"9. c #EE9A13",
"0. c #E8931A",
"q. c #F19D12",
"w. c #DC8523",
"e. c #E28F28",
"r. c #E69322",
"t. c #E5952C",
"y. c #E29438",
"u. c #BE816D",
"i. c #BB8276",
"p. c #E39A44",
"a. c #E19F5A",
"s. c #E6A250",
"d. c #C28572",
"f. c #C38B7C",
"g. c #C78B77",
"h. c #D18F70",
"j. c #CA927C",
"k. c #E6AE76",
"l. c #E6AF7A",
"z. c #E6AC6D",
"x. c #9C9B9B",
"c. c #B19C97",
"v. c #BBBBBB",
"b. c #B8ACA7",
"n. c #C18E85",
"m. c #C59083",
"M. c #CD9886",
"N. c #C6958B",
"B. c #CA9A8D",
"V. c #CA9483",
"C. c #CC9E92",
"Z. c #D4A18E",
"A. c #CCA197",
"S. c #CEA49C",
"D. c #C3A59F",
"F. c #D1A89D",
"G. c #EBBD8E",
"H. c #EAB984",
"J. c #EABE94",
"K. c #D2ACA3",
"L. c #C3B1AF",
"P. c #D5B3AC",
"I. c #DAB6AB",
"U. c #DABBB4",
"Y. c #DABDBA",
"T. c #D7B8B2",
"R. c #CCBBBA",
"E. c #ECC49C",
"W. c #ECC296",
"Q. c #DDC2BD",
"!. c #EECAA7",
"~. c #E2C4BA",
"^. c #F1D4BA",
"/. c #F0D1B5",
"(. c #DEC6C1",
"). c #D9D1CE",
"_. c #D5D6D6",
"`. c #E1C7C3",
"'. c #E5CBC4",
"]. c #E3CECA",
"[. c #E8CDC5",
"{. c #E5D2CE",
"}. c #EAD2CA",
"|. c #F3DBC6",
" X c #E7D4D1",
".X c #EAD8D6",
"XX c #EBDCDA",
"oX c #EEE1DF",
"OX c #F7E9DE",
"+X c #F6E4D5",
"@X c #EEE2E1",
"#X c #EAE9E9",
"$X c #F1E6E5",
"%X c #F3E9E5",
"&X c #F8EDE4",
"*X c #F4EDEC",
"=X c #FAF2ED",
"-X c #F5F2F2",
";X c #F9F5F4",
":X c #FCF8F6",
">X c white",
",X c #FFFEFF",
"<X c #FEFDFD",
"1X c #FFFFFF",
/* pixels */
">X>X>X>X>X>X>X>X>X>X>X>X>X>X>X>X>X>X>X>X>X>X>X>X>X>X>X>X>X>X>X>X>X>X>X>X>X>X>X>X>X>X>X>X>X>X>X>X>X>X>X>X>X>X>X>X>X>X>X>X>X>X>X>X",
">X>X>X>X>X>X>X>X>X>X>X>X>X>X>X>X>X>X>X>X>X>X>X>X>X>X>X>X>X>X>X>X>X>X>X>X>X>X>X>X>X>X>X>X>X>X>X>X>X>X>X>X>X>X>X>X>X>X>X>X>X>X>X>X",
">X>X>X>X>X>X>X>X>X>X>X>X>X>X>X>X>X>X>X>X>X>X>X>X>X>X>X>X>X>X>X>X>X>X>X>X>X>X>X>X>X>X>X>X>X>X>X>X>X>X>X>X>X>X>X>X>X>X>X>X>X>X>X>X",
">X>X>X>X>X>X>X>X>X>X>X>X>X>X>X>X>X>X>X>X>X>X>X>X>X>X>X>X>X>X>X>X>X>X>X>X>X>X>X>X>X>X>X>X>X>X>X>X>X>X>X>X>X>X>X>X>X>X>X>X>X>X>X>X",
">X>X>X>X>X>X>X>X>X>X>X>X>X>X>X>X>X>X>X>X>X>X>X>X>X>X>X>X>X>X>X>X>X>X>X>X>X>X>X>X>X>X>X>X>X>X>X>X>X>X>X>X>X>X>X>X>X>X>X>X>X>X>X>X",
">X>X>X>X>X>X>X>X>X>X>X>X>X>X>X>X>X>X>X>X>X>X>X>X>X>X=X+X^.!.W.G.G.W.!.|.OX:X>X>X>X>X>X>X>X>X>X>X>X>X>X>X>X>X>X>X>X>X>X>X>X>X>X>X",
">X>X>X>X>X>X>X>X>X>X>X>X>X>X>X>X>X>X>X>X>X>X>X<X|.l.p.r.0.8.8.1.1.8.8.0.t.s.H.|.<X>X>X>X>X>X>X>X>X>X>X>X>X>X>X>X>X>X>X>X>X>X>X>X",
">X>X>X>X>X>X>X>X>X>X>X>X>X>X>X>X>X>X>X>X>X>X>XG.r.1.3.q.q.q.q.q.q.q.q.q.q.2.1.r.E.>X>X>X>X>X>X>X>X>X>X>X>X>X>X>X>X>X>X>X>X>X>X>X",
">X>X>X>X>X>X>X>X>X>X>X>X>X>X>X>X>X>X>X>X>X>X=Xy.3.q.q.9.8.8.8.8.8.8.8.9.9.q.q.3.s.:X>X>X>X>X>X>X>X>X>X>X>X>X>X>X>X>X>X>X>X>X>X>X",
">X>X>X>X>X>X>X>X>X>X>X>X>X>X>X>X>X>X>X>X>X>X&Xy.5.4.:.<.<.:.4.4.4.4.:.:.<.:.4.5.p.;X>X>X>X>X>X>X>X>X>X>X>X>X>X>X>X>X>X>X>X>X>X>X",
">X>X>X>X>X>X>X>X>X>X>X>X>X>X>X>X>X>X>X>X&X!.a.<.4.7.8.9.q.q.q.q.q.q.q.9.9.8.5.4.w.k.^.=X>X>X>X>X>X>X>X>X>X>X>X>X>X>X>X>X>X>X>X>X",
">X>X>X>X>X>X>X>X>X>X>X>X>X>X>X>X>X>X|.k.y.:.5.9.q.q.q.q.q.q.9.9.9.9.q.q.q.q.q.q.9.5.<.p.G.OX>X>X>X>X>X>X>X>X>X>X>X>X>X>X>X>X>X>X",
">X>X>X>X>X>X>X>X>X>X>X>X>X>X>X>X&Xk.e.8.R c j P 8.9.7.,.T M l l l l M T ,.7.9.9.T j j P 5.y.E.:X>X>X>X>X>X>X>X>X>X>X>X>X>X>X>X>X",
">X>X>X>X>X>X>X>X>X>X>X>X>X>X>X=Xa.5.q.>.j U ! 9 M M j 9 F G I U U U G F 9 j M T j U U 9 ,.q.6.l.:X>X>X>X>X>X>X>X>X>X>X>X>X>X>X>X",
">X>X>X>X>X>X>X>X>X>X>X>X>X>X>X!.5.q.q.,.9 ~ ~ I 9 G U U I U ~ ~ ~ ~ U I U U I 9 F ~ ~ C R q.q.6.|.>X>X>X>X>X>X>X>X>X>X>X>X>X>X>X",
">X>X>X>X>X>X>X>X>X>X>X>X>X>X>XJ.8.q.q.7.j I ~ ~ U q w * % 7 ~ ~ ~ ~ 7 % * r q U ~ ~ U j >.q.q.5.^.>X>X>X>X>X>X>X>X>X>X>X>X>X>X>X",
">X>X>X>X>X>X>X>X>X>X>X>X>X>X>X|.e.2.q.<.g G ~ L = + O O O r ~ ~ ~ ~ w O O O $ = L ~ I g <.q.1.y.&X>X>X>X>X>X>X>X>X>X>X>X>X>X>X>X",
">X>X>X>X>X>X>X>X>X>X>X>X>X>X>X>X/.y.E j H ~ ~ D # # = e t q ~ ~ ~ ! 8 r e & # # D ~ ~ G j E p.|.>X>X>X>X>X>X>X>X>X>X>X>X>X>X>X>X",
">X>X>X>X>X>X>X>X>X>X>X>X>X>X>X>X>X~.h I ~ ~ ~ U m j.~.}.~.j._ ! U ' Z.'.[.I.u.g U ~ ~ ~ I z ~.>X>X>X>X>X>X>X>X>X>X>X>X>X>X>X>X>X",
">X>X>X>X>X>X>X>X>X>X>X>X>X>X>X>X$XO.G ~ ~ ~ ! ] [.>X>X>X>X>XU._ *..X>X>X>X>X:XI.) ~ ~ ~ ~ J @.%X>X>X>X>X>X>X>X>X>X>X>X>X>X>X>X>X",
">X>X>X>X>X>X>X>X>X>X>X>X>X>X>X:Xf.C ~ ~ ~ ~ [ ~.>X>X>X>X#Xv.-XB.U._._.>X>X>X>X>XZ.U ~ ~ ~ ~ C m.>X>X>X>X>X>X>X>X>X>X>X>X>X>X>X>X",
">X>X>X>X>X>X>X>X>X>X>X>X>X>X>X(.z ! ~ ~ ~ W -.;X>X>X>X>X< o _.`.R.X , -X>X>X>X>XXX_ ~ ~ ~ ~ ~ x ].>X>X>X>X>X>X>X>X>X>X>X>X>X>X>X",
">X>X>X>X>X>X>X>X>X>X>X>X>X>X;X%.G ~ ~ ~ ~ W h.>X>X>X>X-XX   1 Y.c.  . x.>X>X>X>X*X] Q ~ ~ ~ ~ G u.:X>X>X>X>X>X>X>X>X>X>X>X>X>X>X",
">X>X>X>X>X>X>X>X>X>X>X>X>X>X(.k ~ ~ ~ ~ U Z =.{.*X>X>X>X<   , Y.L.o . v.>X>X>X%XQ.` G U ~ ~ ~ ~ x ].>X>X>X>X>X>X>X>X>X>X>X>X>X>X",
">X>X>X>X>X>X>X>X>X>X>X>X>X>Xf.Z ~ ~ ~ ~ U U Y ) *.M.@X>Xb.@ ; : : @ > ).>X.Xj.] ) I I U ~ ~ ~ ~ Z N.>X>X>X>X>X>X>X>X>X>X>X>X>X>X",
">X>X>X>X>X>X>X>X>X>X>X>X>X*X| U ~ ~ ~ ~ ~ ~ ~ ~ W G O.c.- + O O O + O : D. .G ~ ~ ~ ~ ~ ~ ~ ~ ~ U X.*X>X>X>X>X>X>X>X>X>X>X>X>X>X",
">X>X>X>X>X>X>X>X>X>X>X>X<X(.k ~ ~ ~ ~ ~ ~ ~ ~ ~ ~ ~ G 2 O + + + + + + O e I ~ ~ ~ ~ ~ ~ ~ ~ ~ ~ ~ x ].<X>X>X>X>X>X>X>X>X>X>X>X>X",
">X>X>X>X>X>X>X>X>X>X;XK.-.| 9 ~ ~ ~ ~ ~ ~ ~ ~ ~ ~ ~ ! t + + + + + + + # p ~ ~ ~ ~ ~ ~ ~ ~ ~ ~ ~ ~ 9 X.;.I.;X>X>X>X>X>X>X>X>X>X>X",
">X>X>X>X>X>X>X>X>X-Xg.F W U 9 U ~ ~ ~ ~ ~ ~ ~ ~ ~ ~ ~ i + + + + + + O $ 8 ~ ~ ~ ~ ~ ~ ~ ~ ~ ~ ~ U d U K F g.-X>X>X>X>X>X>X>X>X>X",
">X>X>X>X>X>X>X>X:XM.F ~ ~ ~ 9 U ~ ~ ~ ~ ~ ~ ~ ~ ~ ~ U p r % $ + + $ * t d ~ ~ ~ ~ ~ ~ ~ ~ ~ ~ ~ U 9 ! ~ ~ F m.<X>X>X>X>X>X>X>X>X",
">X>X>X>X>X>X>X>XI.( ~ ~ ~ U j ~ ~ ~ ~ ~ ~ ~ ~ ~ ~ ~ F i 0 I D 0 q D I 7 p I ~ ~ ~ ~ ~ ~ ~ ~ ~ ~ ~ 9 I ~ ~ ~ D P.>X>X>X>X>X>X>X>X",
">X>X>X>X>X>X>X$X..U ~ ~ ~ F d ~ ~ ~ ~ ~ ~ ~ ~ ~ ~ F A U 7 r q L L q w 7 U A I ~ ~ ~ ~ ~ ~ ~ ~ ~ ~ D A ~ ~ ~ U  .$X>X>X>X>X>X>X>X",
">X>X>X>X>X>X>XC.Z ~ ~ ~ ~ d 4 ! ~ ~ ~ ~ ~ ~ ~ U F H ~ ~ U 7 = * * e 8 ~ ~ ! F F U ~ ~ ~ ~ ~ ~ ~ ~ F p ~ ~ ~ ~ Z F.>X>X>X>X>X>X>X",
">X>X>X>X>X>X%X..! ~ ~ ~ U a d U ~ ~ ~ ~ ~ ~ ~ U U ~ ~ ~ ~ ~ U L L U ~ ~ ~ ~ ~ U U ~ ~ ~ ~ ~ ~ ~ ~ F v I ~ ~ ~ U =.-X>X>X>X>X>X>X",
">X>X>X>X>X>XU.F ~ ~ ~ ~ ) &.u H ~ ~ ~ ~ ~ ~ ~ ~ ~ ~ ~ ~ ~ ~ ~ ~ ~ ~ ~ ~ ~ ~ ~ ~ ~ ~ ~ ~ ~ ~ ~ ~ ~ k n._ ~ ~ ~ ~ ( `.>X>X>X>X>X>X",
">X>X>X>X>X>Xd.U ~ ~ ~ ~ / K.b S U ~ ~ ~ ~ ~ ~ ~ ~ ~ ~ ~ ~ ~ ~ ~ ~ ~ ~ ~ ~ ~ ~ ~ ~ ~ ~ ~ ~ ~ ~ ~ ! m Q.` ~ ~ ~ ~ U M.>X>X>X>X>X>X",
">X>X>X>X>X*X..! ~ ~ ~ ~ ^ U.+.5 H ~ ~ ~ ~ ~ ~ ~ ~ ~ ~ ~ ~ ~ ~ ~ ~ ~ ~ ~ ~ ~ ~ ~ ~ ~ ~ ~ ~ ~ ~ ~ G $.(.^ ~ ~ ~ ~ ! =.-X>X>X>X>X>X",
">X>X>X>X>XXXx ~ ~ ~ ~ ~ Z S.S.u S J ~ ~ ~ ~ ~ ~ ~ ~ ~ ~ ~ ~ ~ ~ ~ ~ ~ ~ ~ ~ ~ ~ ~ ~ ~ ~ ~ ~ ~ ~ A P.S.C ~ ~ ~ ~ ~ ` oX>X>X>X>X>X",
">X>X>X>X>X{./ ~ ~ ~ ~ ~ U ;.XX{ V S U ~ ~ ~ ~ ~ ~ ~ ~ ~ ~ ~ ~ ~ ~ ~ ~ ~ ~ ~ ~ ~ ~ ~ ~ ~ ~ ~ ~ U | @X$.G ~ ~ ~ ~ ~ /  X>X>X>X>X>X",
">X>X>X>X>X{./ ~ ~ ~ ~ ~ ! B @XB.6 S Z ! ~ ~ ~ ~ ~ ~ ~ ~ ~ ~ ~ ~ ~ ~ ~ ~ ~ ~ ~ ~ ~ ~ ~ ~ ~ ~ ~ A A.$XN ! ~ ~ ~ ~ ~ / {.>X>X>X>X>X",
">X>X>X>X>X.Xx ! ~ ~ ~ ~ ~ D Q.%X} 5 S H U ~ ~ ~ ~ ~ ~ ~ ~ ~ ~ ~ ~ ~ ~ ~ ~ ~ ~ ~ ~ ~ ~ ~ ~ ~ G O.*X`.^ ~ ~ ~ ~ ~ ~ /  X>X>X>X>X>X",
">X>X>X>X>X%X .Z U ~ U ! ~ Z K.>XQ.v V S S U ~ ~ ~ ~ ~ ~ ~ ~ ~ ~ ~ ~ ~ ~ ~ ~ ~ ~ ~ ~ ~ ~ ~ U m `.>XK.C ~ ! U ~ U J N $X>X>X>X>X>X",
">X>X>X>X>X>Xd.5 U ~ H I ~ Z K.>X>XS.u S S S U ~ ~ ~ ~ ~ ~ ~ ~ ~ ~ ~ ~ ~ ~ ~ ~ ~ ~ ~ ~ ~ ! j S.>X>XK.C ~ I F ~ U 9 $.:X>X>X>X>X>X",
">X>X>X>X>X>X`.s C ~ H D ! x {.>X>X<Xm.u S S S H U ~ ~ ~ ~ ~ ~ ~ ~ ~ ~ ~ ~ ~ ~ ~ ~ ~ ~ U k N.<X>X>X{.z ! F H ~ F s U.>X>X>X>X>X>X",
">X>X>X>X>X>X<XA.s C G 3 z K.>X>X>X>X;XN.u V S S C J U ~ ~ ~ ~ ~ ~ ~ ~ ~ ~ ~ ~ ~ ~ ! G f N.<X>X>X>X>XA.h 3 G Z a N.:X>X>X>X>X>X>X",
">X>X>X>X>X>X>X>XQ.i.%.i.(.>X>X>X>X>X>X<XS.b 4 S S S S H J U U ! ~ ~ ~ ~ ! ! U J H 5 b S.:X>X>X>X>X>X:XY.&.O.$.P.<X>X>X>X>X>X>X>X",
">X>X>X>X>X>X>X>X>X>X:X>X>X>X>X>X>X>X>X>X>X].#.a 6 V S S S S S S H H H S S S S 5 u +.].>X>X>X>X>X>X>X>X>X>X:X:X>X>X>X>X>X>X>X>X>X",
">X>X>X>X>X>X>X>X>X>X>X>X>X>X>X>X>X>X>X>X>X>X;XT.#.v u 4 A S S S S S S S 5 f s +.P.-X>X>X>X>X>X>X>X>X>X>X>X>X>X>X>X>X>X>X>X>X>X>X",
">X>X>X>X>X>X>X>X>X>X>X>X>X>X>X>X>X>X>X>X>X>X>X>X;X].o.y y y u u u u y y y o.`.;X>X>X>X>X>X>X>X>X>X>X>X>X>X>X>X>X>X>X>X>X>X>X>X>X",
">X>X>X>X>X>X>X>X>X>X>X>X>X>X>X>X>X>X>X>X>X>X>X>X>XoXN U I F 4 &.i.d F I U B .X>X>X>X>X>X>X>X>X>X>X>X>X>X>X>X>X>X>X>X>X>X>X>X>X>X",
">X>X>X>X>X>X>X>X>X>X>X>X>X>X>X>X>X>X>X>X>X>X>X>X>XN.Z ~ ~ ~ G B.C.G ~ ~ ~ G d.>X>X>X>X>X>X>X>X>X>X>X>X>X>X>X>X>X>X>X>X>X>X>X>X>X",
">X>X>X>X>X>X>X>X>X>X>X>X>X>X>X>X>X>X>X>X>X>X:X XC.b 9 I ~ ~ U @.%.U ~ ~ U 9 v A.XX>X>X>X>X>X>X>X>X>X>X>X>X>X>X>X>X>X>X>X>X>X>X>X",
">X>X>X>X>X>X>X>X>X>X>X>X>X>X>X>X>X>X>X>X>X;Xm.x C U U ~ ~ ~ ! n n U ~ ~ ~ U I F m S.:X>X>X>X>X>X>X>X>X>X>X>X>X>X>X>X>X>X>X>X>X>X",
">X>X>X>X>X>X>X>X>X>X>X>X>X>X>X>X>X>X>X>X>XP.9 ~ ~ ~ ~ ~ ~ ~ ~ p u ~ ~ ~ ~ ~ ~ ~ ! k U.>X>X>X>X>X>X>X>X>X>X>X>X>X>X>X>X>X>X>X>X>X",
">X>X>X>X>X>X>X>X>X>X>X>X>X>X>X>X>X>X>X>X>Xm.G ~ ~ ~ ~ ~ ~ ~ ~ d p ~ ~ ~ ~ ~ ~ ~ ~ G f.>X>X>X>X>X>X>X>X>X>X>X>X>X>X>X>X>X>X>X>X>X",
">X>X>X>X>X>X>X>X>X>X>X>X>X>X>X>X>X>X>X>X>Xm.G ~ ~ ~ ~ ~ ~ ~ ~ p u ~ ~ ~ ~ ~ ~ ~ ~ G f.>X>X>X>X>X>X>X>X>X>X>X>X>X>X>X>X>X>X>X>X>X",
">X>X>X>X>X>X>X>X>X>X>X>X>X>X>X>X>X>X>X>X>XK.A ~ ~ ~ ~ ~ ~ ~ U n n U ~ ~ ~ ~ ~ ~ ~ 9 P.>X>X>X>X>X>X>X>X>X>X>X>X>X>X>X>X>X>X>X>X>X",
">X>X>X>X>X>X>X>X>X>X>X>X>X>X>X>X>X>X>X>X>X*Xu.k C C C C C C 4 f.B.d C C C C C C k f.-X>X>X>X>X>X>X>X>X>X>X>X>X>X>X>X>X>X>X>X>X>X",
">X>X>X>X>X>X>X>X>X>X>X>X>X>X>X>X>X>X>X>X>X>X;X(.K.K.K.K.K.K.U.*X;XQ.K.K.K.K.K.K.(.;X>X>X>X>X>X>X>X>X>X>X>X>X>X>X>X>X>X>X>X>X>X>X",
">X>X>X>X>X>X>X>X>X>X>X>X>X>X>X>X>X>X>X>X>X>X>X>X>X>X>X>X>X>X>X>X>X>X>X>X>X>X>X>X>X>X>X>X>X>X>X>X>X>X>X>X>X>X>X>X>X>X>X>X>X>X>X>X",
">X>X>X>X>X>X>X>X>X>X>X>X>X>X>X>X>X>X>X>X>X>X>X>X>X>X>X>X>X>X>X>X>X>X>X>X>X>X>X>X>X>X>X>X>X>X>X>X>X>X>X>X>X>X>X>X>X>X>X>X>X>X>X>X",
">X>X>X>X>X>X>X>X>X>X>X>X>X>X>X>X>X>X>X>X>X>X>X>X>X>X>X>X>X>X>X>X>X>X>X>X>X>X>X>X>X>X>X>X>X>X>X>X>X>X>X>X>X>X>X>X>X>X>X>X>X>X>X>X",
">X>X>X>X>X>X>X>X>X>X>X>X>X>X>X>X>X>X>X>X>X>X>X>X>X>X>X>X>X>X>X>X>X>X>X>X>X>X>X>X>X>X>X>X>X>X>X>X>X>X>X>X>X>X>X>X>X>X>X>X>X>X>X>X",
">X>X>X>X>X>X>X>X>X>X>X>X>X>X>X>X>X>X>X>X>X>X>X>X>X>X>X>X>X>X>X>X>X>X>X>X>X>X>X>X>X>X>X>X>X>X>X>X>X>X>X>X>X>X>X>X>X>X>X>X>X>X>X>X"
};
