/* XPM */
static char *_85a93ff07e0477ce53d467a0badd902abuP4HFX8R32lciO[] = {
/* columns rows colors chars-per-pixel */
"64 64 256 2 ",
"   c #090301",
".  c #170505",
"X  c #1C0C16",
"o  c #101116",
"O  c #2C0A0C",
"+  c #280509",
"@  c #34050B",
"#  c #3C050B",
"$  c #340A0D",
"%  c #3C090D",
"&  c #350304",
"*  c #2B0C13",
"=  c #250D16",
"-  c #340C13",
";  c #3B0D13",
":  c #380B18",
">  c #281418",
",  c #3C141B",
"<  c #371417",
"1  c #2F100E",
"2  c #081D26",
"3  c #181B27",
"4  c #190B25",
"5  c #251621",
"6  c #2A1B25",
"7  c #281A28",
"8  c #381A25",
"9  c #2A0D21",
"0  c #1A232C",
"q  c #192A36",
"w  c #04363C",
"e  c #16333B",
"r  c #0A2631",
"t  c #25242C",
"y  c #262A35",
"u  c #362C36",
"i  c #24343C",
"p  c #36373C",
"a  c #3D2225",
"s  c #3B221D",
"d  c #440A0D",
"f  c #4A0B0E",
"g  c #41050B",
"h  c #430C13",
"j  c #4C0D12",
"k  c #42071B",
"l  c #530D12",
"z  c #5B0D13",
"x  c #550D19",
"c  c #441215",
"v  c #4C1215",
"b  c #44141A",
"n  c #4B141A",
"m  c #45191C",
"M  c #4B1B1E",
"N  c #491814",
"B  c #531114",
"V  c #5B1316",
"C  c #54151A",
"Z  c #5B151A",
"A  c #551B1E",
"S  c #5C1A1D",
"D  c #581D14",
"F  c #500F0C",
"G  c #640C15",
"H  c #6A0D16",
"J  c #6A0F18",
"K  c #63151A",
"L  c #6C131B",
"P  c #631A1D",
"I  c #6B1B1D",
"U  c #661516",
"Y  c #731916",
"T  c #74151B",
"R  c #741B1B",
"E  c #7A1B1C",
"W  c #791918",
"Q  c #66110C",
"!  c #58211D",
"~  c #4C271E",
"^  c #75201E",
"/  c #7C211D",
"(  c #75261A",
")  c #67251B",
"_  c #4C1C23",
"`  c #461C24",
"'  c #531D24",
"]  c #5D1C22",
"[  c #5A1925",
"{  c #451F36",
"}  c #631D22",
"|  c #6C1D22",
" . c #651926",
".. c #731D22",
"X. c #7C1D21",
"o. c #4D2224",
"O. c #492628",
"+. c #532324",
"@. c #5C2324",
"#. c #54242B",
"$. c #5B252B",
"%. c #542A2B",
"&. c #5B2A2C",
"*. c #5B2926",
"=. c #492935",
"-. c #5B2D32",
";. c #562B34",
":. c #4A3539",
">. c #573337",
",. c #51322E",
"<. c #632425",
"1. c #6B2225",
"2. c #63252A",
"3. c #6B252A",
"4. c #642A2C",
"5. c #6C2A2C",
"6. c #642925",
"7. c #742325",
"8. c #7C2323",
"9. c #732529",
"0. c #7B252A",
"q. c #732B2C",
"w. c #7C2A2B",
"e. c #792A25",
"r. c #66312E",
"t. c #7A312D",
"y. c #642C31",
"u. c #682D35",
"i. c #732C32",
"p. c #7A2C33",
"a. c #6B3334",
"s. c #683638",
"d. c #733134",
"f. c #7C3234",
"g. c #73353B",
"h. c #743A3D",
"j. c #7B3939",
"k. c #7C433B",
"l. c #083947",
"z. c #173845",
"x. c #1D3C51",
"c. c #263946",
"v. c #343A47",
"b. c #4F3845",
"n. c #783B42",
"m. c #1B424C",
"M. c #12454C",
"N. c #084D5A",
"B. c #174956",
"V. c #175359",
"C. c #07484E",
"Z. c #25424C",
"A. c #284957",
"S. c #334A57",
"D. c #27545D",
"F. c #36494F",
"G. c #165664",
"H. c #365A67",
"J. c #265564",
"K. c #396A76",
"L. c #2E676F",
"P. c #0E6471",
"I. c #554852",
"U. c #784443",
"Y. c #6A4751",
"T. c #4C5869",
"R. c #486978",
"E. c #726F77",
"W. c #6C576A",
"Q. c #831D1B",
"!. c #921A19",
"~. c #83221E",
"^. c #8C251E",
"/. c #9B261F",
"(. c #821E25",
"). c #832424",
"_. c #8B2523",
"`. c #83252B",
"'. c #842C2C",
"]. c #8A2D2D",
"[. c #8A2729",
"{. c #942B2A",
"}. c #9B2D2B",
"|. c #942926",
" X c #8A322D",
".X c #83332D",
"XX c #97322D",
"oX c #872C31",
"OX c #843332",
"+X c #8C3333",
"@X c #883937",
"#X c #933534",
"$X c #9C3534",
"%X c #933935",
"&X c #9C3935",
"*X c #933A3A",
"=X c #9C3A3A",
"-X c #963639",
";X c #952D30",
":X c #A52B29",
">X c #A43432",
",X c #A13935",
"<X c #A33C39",
"1X c #A93636",
"2X c #B53737",
"3X c #A5302D",
"4X c #CC3337",
"5X c #93443B",
"6X c #A6443D",
"7X c #873A43",
"8X c #913842",
"9X c #B23E41",
"0X c #864846",
"qX c #9B4845",
"wX c #93554E",
"eX c #A94744",
"rX c #A95955",
"tX c #B55753",
"yX c #B2504B",
"uX c #B3665A",
"iX c #B46F69",
"pX c #8D6666",
"aX c #CE5750",
"sX c #D26B5D",
"dX c #C6696C",
"fX c #C6756A",
"gX c #CF7774",
"hX c #DF665F",
"jX c #D08579",
"kX c #E58579",
"lX c #5A7888",
"zX c #4E7A88",
"xX c #677A89",
"cX c #6A738C",
"vX c #347480",
"bX c #A07C87",
"nX c #DD7C83",
"mX c #55848F",
"MX c #6C8491",
"NX c #A9A4A3",
"BX c #DA8B88",
"VX c #D4938C",
"CX c #E69690",
"ZX c #EBA196",
"AX c #F7BBB9",
"SX c #EDAFA7",
"DX c #D8A8A5",
"FX c #F8CABA",
"GX c #F4C8B5",
"HX c #F4BFC5",
"JX c #F9CCC7",
"KX c #FCD6CB",
"LX c #FDD9D2",
"PX c #F2CACB",
"IX c #FDE2CF",
"UX c #E3D9D6",
/* pixels */
"N M o.+.a.h.6.@.A 6.6.<.<.5.q.5.q.q.t.t.OX@X@X5X5X%X%X%X+X+X%X%X+X X{.}. X.X[.{._.|.{.|.|.}.:X:X:X|.|._.^.^.^._.Q.~.~.~.Q.Q.E W ",
"N M M +.r.d.@.@.@.<.@.! <.5.d.q.q.q.t.t.OXOX@X@X%X%X%X%X%X%X%X%X&X X&XXX XXXXX{.XX}.}.XX3X}.}.|.}.|.|._.^.~.~.~.Q.~.~.~.Q.Q.E W ",
"c m M +.r.a.@.@.! @.@.6.6.5.d.5.q.t.t.t.OXOXOX@X%X%X%X%X%X%X&X&XXX&XXX$XXXXX}.$XXXXX}.}.3X}.XX|.|.|._._.~.~.~.~.~.~./ / E E W Y ",
"b m M +.r.r.A @.@.6.6.6.5.5.q.5.q.t.t.t.OXOXOX+X%X%X%X&X&X,X,X&X&XXX6X$X$X1X>X>X$X,X>X3X1X3X}.:X|.|._._.).~.~.~./ / / E E W W Y ",
"b m _ +.r.4.A @.@.@.@.6.6.5.q.9.e.w.t.t..X.X X+X%X&X&X,X,X<X<X,X&X$X%XeXeX6XXX2X1X>X1X3X>X3X:X:X|._._._.).~.~.)./ ^ E R W E W Y ",
"b m o.+.a.4.A @.@.@.@.6.5.q.d.9.q.t.t..X.X.X X%X#X&X=X<X<X<X<X,X,X&XiXFXFXSXtX3X1X3X2X2X>X>X>X}.|.|._._.).~./ / E E R Y Y E W Y ",
"b M +.+.a.4.A @.@.6.@.6.5.d.f.q.w.OXOXOX+X+X+X%X&X&X<X,X<X<X<X&X,X<XZXKXJXJXAXfX6XeX>X2X2X1X>XXX}.|._._._.)./ / E R R Y Y Y Y Y ",
"N M +.+.r.6.A A @.4.6.6.6.9.f.p.t.OXOXOX@X+X+X#X%X&X,X,X,X<X<X&X&X6XVXSXKXKXIXFXSXZX6X3X2X2X>X>XXX}.|.[._.)./ / R W W R W E Y Y ",
", M +.#.r.6.A &.4.4.6.6.5.5.f.w.w..XOX+X*X%X%X$X&X&X&X<X<X<X6X=X&X2XyX.XiXDXUXUXIXIXSXgXyX:X,X,X>XXX[.]._._.).E R W Y Y W W W Y ",
"m M $.@.4.r.6.<.6.6.3.3.5.i.f.w.w.OX+X+X%X#X#X=X&X<X<X,X&X<X<X<X1XtXiXj.F rXDXDXKXKXKXKXGXjX:X2X3X}.{.|.[.).).R R W Y Y W W W Y ",
"n n @.@.4.*.A } @.5.4.5.5.5.f.q.OX+X+X+X%X#X$X&X$X=X&X<X<X<X<X,XyXrXqXwXk.P wXpXVXLXKXKXFXFXjX:X>X>X}.|.{.).E E R W Y Y R W Y Y ",
"m o.+.+.r.6.S ! <.1.3.1.6.f.@XOXOX+X+X+X#X$X$X&X&X&X&X&X<X,X<X<XtXwXrXuXwX0Xd.N 0XGXKXKXKXFXFXsX}.1X|.|.{.).E ^ R R R Y Y Y Y Y ",
", +.+.%.4.P P @.<.5.6.5.q.f.@Xw.OXOXOX+X-X&X$X$X%X&X=X=X&X$XeXaXuXiXiXwXk.0Xa.b W CXKXLXKXLXKXGX6X{.XX{._.[.).E R R R Y Y Y Y Y ",
"b M +.&.y. . .A @.5.q.q.q.t.@XOX'.OX+X%X-X=X$X$X#X%X=X=X=X&XeXsXsXfXwXk.U.h.N o.Q.aXFXKXKXKXLXIXCX{.XX{.[.[.)./ R R R Y Y R Y T ",
"M +.+.' y.>.%.d.u.2.i.7.9.OXw.oX'.+X*X*X-X#X#X#X-X#X-X=X=X$X<XtXsXuXr.s.,.U.r.$ ^ 4XZXLXFXJXJXZXSXeX|.}.].[.8.8.^ R R I R R R W ",
"b o.+.2.>.o > bXNXiX-.4.g.U.iXwXw.OX*X*X%X#X#X#X#X#X=X=X=X&X6XaXZXqX0Xf.~ r.s.+.! :XtXJXGXJXDXhXkXsX_.}.[.).8./ 8.R R R I R W W ",
"M O.' ,.>.h + *.0XY.< 1 E.pXNXNXqX'.+X*X+X+X+X#X%X#X-X6X#X=X,XfXAXuX5X2.o.,.' N  .) ).ZXPXPXBXyXhXsX^.[.;X_.8.Q.8.R R R I R W W ",
"c o.$.,.,.2.%.a.O.  .   y.u.W.NXrXOXOX+X*X+X].+X%X#X%X=X#X=X$XjXJXjXrXqX6.h n m N D V uXAXAXgXaXdXtXXX[.[.[.e.~.8.R R R R R R W ",
"M +.*.%.O. .*.3.d.= . . ` . W.E.qX'.OX*X*XOX].+X+X-X%X#X-X#X{.jXiXfXgXuX0X! j h ; v S !.dXBXsXtX4.5.#X{.].[.8./ 8.^ R R R R R W ",
"M +.O.*.,.] ' 3.>.0 < i.p.n.Y.Y.OX'.+X*X+X'.'.].+X#X%X#X#X#X#XBXwXuXfX7.2.a.v N & h D |.g.,.+.9 + A -X[. X).8.e.8.8.R R R R E W ",
"m #.O.*.,.@.*.| b.A.' q.d.0X7Xd.OX'.OX*XOXOX'.'.+X+X+X#X X%X=XSXDXVXBX5.s.6.w.U F & ( 2Xn.=.$ , - @.<X_..X).).8.8.8.R R R R E W ",
"` o.%.&.O.' &.P F.K.0X1.d.k.oXoXOX'.OX*X+XoX'. X].#X+X{.%X+X-XAXPXLXjXiXiXqXqXq.h % !.@XF.;.< $ @ c =X{.e.[.).X.8.8.R R R E W W ",
"_ +.#.y.#.o.4.| y F.7Xq.q.0Xf.d.0.'.OX*X+X'.'.OX'.+X+X{.#X%X+XSXHXLXgXBXSXgXtXp.: F 4XI.x.{ - - $ 1 oX{.).[.[.8.8.8.R R R E E E ",
"M &.#.$.$.o.] | :.9 d.t.d.7X7Xp.e..XOX@XOXOX'.'.+X].+X{.+X-X#XVXZXSXBXBXAXCXqX) E :X4Xb.i > * $ : < } {.].).).8.8.8.R R E X.E E ",
"A #.;.&.4.m ] I S.+.`.f.j.0XOXf.w.w.OX@XOXw.'.'.'.].+X].+X%X+XgXGXgX%XrXBXgX*Xe.9XeX].b.=.y t u 8 1 P ].].'.e.8.8.^ ^ R R X.W E ",
"A ;.;.&.2.m S 1.S.4...3.j.7Xq.p.f.w.OX@XOXw.'.'.'.].].].#X%X+XgXBXnXqXiXuX8X@X#XU Q =X8 =.8 < - : O } ].[.).8.).8.^ ^ R R X.W E ",
"_ ;.;.y.2.M Z 4.Z.3.3.9.j.7X3.w.f.p.OX@XOX0.'.'.'.'.'.].#X+X XdXSXdX#X5XiX0Xj.|.Q ~.8Xp 6 : @ + * O 1.].'.`.8.8.8.^ ^ R R X.W E ",
"o.;.;.-.<.A v >.v.9.a.p.k.n.q.9.p.i.f.@Xf.w.0.`.'.'.'.].+X+X].tXJXdXeXiXrXf.j.%X|.2Xf.c.6 X * 1 O $ 7.].'.'.).8.8.^ ^ R R X.E E ",
"+.-.&.-.6.! n p b.w.a.p.h.n.q.w.q.i.f.@Xp.0.0.w.'.'.'.'.OX+X].qXGXBXfXjXt.9.q.6X:X/.h.Z.=.8 = + O % `.[.8.[.).8.8.^ ^ R R ).E E ",
"+.-.$.-.4.*.' F.>.q.2.i.U.h.6.9.q.q.f.f.q.7.0.w.0.'.'.'.].OX'.+XSXFXZXwXj.6.t.aX3X.Xg.Z.y { > > O % `.[.e.[.8.8.8.7.R R R Q.E W ",
"+.-.$.>.4.<.[ c.$.)  .i.U.h.1.3.q.q.d.f.q.7.0.0.w.w.'.'.'.].'.'.dXBXpXa.w.1.5XaX X).7XF.i t * * * % `.).e.'.8.8.8.7.^ R E ).E W ",
"#.>.$.-.4.P [ e 3.) 7.g.U.n.p.i.i.i.f.f.q.9.0.0.w.w.w.'.'.'.'.'.+XtX9.! S wXrXhXyXX.h.b.k : & + + h oX).e.).8.8.8.7.^ R ..).E W ",
"O.>. .>.@.[ +.8 7.@.g.i.h.U.i.i.9.i.n.h.9.7.9.9.9.0.0.w.'.'.`.'.0.BX=X^ 5XdXiXhX7Xb.v.=.+ + & + + } e.).).8.8.8.7...R R X.).X.E ",
"#.-.#.>.@. .:.u 9.4.d.5.h.h.d.3.1.5.h.j.9.7.7.7.9.9.0.0.'.'.`.'.[.VXrXrXfXgXiXy.t q Z.u > O * * h 0.'.).).8.8.8.7...R R X.).X.T ",
"&.s.%.%.[ K v.u 5.a.5.<.h.a.i.1.1.5.h.g.9.7.7.7.7.9.9.7.w.'.w.'.`.VXZXiXVXBXn.7 M.z.Z.6 1 * * = Z [.'.8.8.0.8.8.8.....R X.X.E T ",
"-.s.#.&.#.S m.8 i.a.<.S h.u.i.5.5.5.h.g.1.| 7.1.7.9.9.9.w.w.0.oX).VXDXVXVXY.4 Z.z.z.Z.6 - - * X V `.).8.8.0.8.7.7.....R R Q.E T ",
";.>.@.&.' A z.m d.4.S S h.4.5.d.5.5.h.d.1.| 1.1.7.9.9.9.w.w.0.'.( gXSXCXI.r v.V.r l.M.6 * * @ + V `.8.8.0.9.7.7.7.....R R X.W W ",
"&.>.%.%.Z O.z.A g.@.S ] h.2.1.g.3.5.g.g.1.| | 1.7.7.9.9.w.w.9.w.R VXAXI.w z.m.N.z.V.M.5 = * $ O S '.7.7.7.7.......I I I R X.W W ",
"-.>.#.;.V p y @.y.] P S h.<.1.g.1.3.g.g.1.| | 1...7.7.7.0.w.9.w.7XNXT.N.M.0 G.l.S.H.z.= = * * + K oX7.7.7.....1.| I I I R X.W T ",
">.-.#.;.K V.y 4.@.S P S h.<.5.s.<.2.g.g.1.I | | | 1.7.7.9.0.9.w.pXD.V.B.l.B.M.e H.R.c.> = + * O K `...7.7.....| | I I I R X.T T ",
"b.,.' >.A A.o o.<.Z Z @.h.2.5.u.3.2.h.d.1.I } | I | 3...9.X.a.bXxXG.L.z.C.N.c.z.L.R.v.X = + O O E 0.1.9...7.| | | I P K R ..T T ",
">.;.' ;._ M.X m S Z C @.h.4.@.r.u.2.h.i.} I P | ..1.| | e.i.E.MXR.L.J.l.N.B.z.z.K.H.p X * + O @ Q.0.| 7...7.| | I I P K L R T T ",
">.;.' #.b.M.' -.A Z C +.U.4.A y.a.y.g.u.} P P | L I | P d.xXcXxXR.vXl.l.N.m.q A.K.H.y > = + + $ _.8.| 7...1.1.I I P K K L ..T T ",
">.;.o.#.F.e C *.A S C &.n.2.C 2.a.y.g.y.} P P } P | | K E.mXxXlXzXL.l.N.B.i y H.K.S.y 5 = + + $ {.8.| ..| I I I I K K V L T T T ",
",.=.O.;.V.t S -.S C B y.s.S S S y.y.g.y.] Z K } } ! L W.mXzXMXcXmXN.l.G.M.y i K.H.S.y 6 > * O - {.8.| | | I I I P K Z V K L L T ",
">.=.O.=.N.> A &.A C C u.u.C ] Z 4.y.g.4.] Z S }  .F i.zXcXmXxXMXmXC.N.G.Z.0 c.R.H.Z.y 7 > * O : {...| | I I I I K Z V z L L J L ",
",.=.#.:.C., ' %.A C A s.y.C Z Z @.y.s.2.] S P Z } U >.K.lXlXMXMXzXl.N.B.v.3 A.K.S.c.y 7 > > - b {.I P P | P P P K Z V z G L J L ",
">.;.' u w c [ O.n C ' s.y.C C C S 2.u.@.S S P Z P x Y.K.lXmXMXMXH.l.P.x.y 3 H.H.S.c.y 7 > < - _ [.L P P P K K K V V B l G L J L ",
"=.#._ u q B ' o.n ' ' y.u.C C C C $.4.@.S S S S S z I.K.lXxXmXzXA.G.J.i 7 q L.S.S.c.y 6 > < <  .;XZ S K K K K Z V B l l z G J J ",
"=.O.` v.3 j +.o._ &.-.s.y.C A C A $.4.@.C Z Z C ] z I.K.lXMXMXK.l.L.B.c.3 m.L.A.A.c.y 6 > < , | [.V S Z S Z V Z V B l l z G G H ",
"=.O.` Z.> M O.#.#.;.%.y.$.' ] C ] $.4.] C C Z C C z b.K.lXxXMXD.l.L.z.c.4 D.H.A.A.c.y 6 > < , 0.(.V S Z Z V V B B l j l z G G G ",
"=.O.` B.< _ O.o.' M M ;.' v ' A ' $.$.' C C C C C l b.L.lXlXlXl.G.H.z.q 3 L.D.A.A.c.y 7 5 , m 0.X.V C V V B V B l j f f l G G G ",
"=._ =.C.1 _ ` ` h h b -._ h M +.' $.$.' v v C C C l b.L.lXxXR.l.K.c.c.4 z.L.m.A.Z.c.y 7 5 8 b `...B C x B B B l j f f f l z G H ",
"O.b u w + k ` ` n b _ -._ M ' +.' +.+.A v v v v v j :.R.cXxXD.B.K.q i o D.D.z.D.c.i y 7 5 , n `.P B B x B f l j j f d f l z H J ",
"a b c.2 + < o.` _ _ _ #._ ' ' _ _ ' ' M v j v v j B :.R.cXR.B.L.J.e 0 3 J.Z.m.D.c.i y 6 > , M `.V v j l j f j j f d d f l z H H ",
"a ` M.o , , s ` m m ` #.b n c n M _ _ M j j j h h j u T.cXT.C.K.z.e o q J.z.A.D.c.i y 7 = : M `.l v j l j d f f d d d f l G H L ",
"` e N.  - ; c , h # b O.h h b m m M _ c h j h h ; x q T.E.S.B.H.e e o V.A.z.J.A.c.y y 6 = * n 0.j j d h h d h h d d d g z G G T ",
"` 0 l.  @ # h ; $ @ , :.b c n m M m M h h h h h ; j q S.W.A.B.A.q 0 r J.z.m.V.Z.c.y t 6 X * c | h j d h d # % # g g d g z G H H ",
"8 i r . - - ; , $ ; , :.m ; h ; b b n h % d d h h h y c.W.m.M.z.e o e D.r B.V.c.c.q t 5 X * ; z d h d d d c _ o.b c m c A 1.| K ",
"a c.2 + - - - , ; : , I.; @ @ @ m b b h $ # % % h d y y W.l.M.e q o M.z.e B.C.c.e q t 5 X = ; l h h g # # c o.%.o.` O.M 6.5.3.P ",
"=.e o , & $ , ; $ $ - :.$ & @ $ , b b ; % # $ $ % & t 0 I.l.m.q 3 2 B.r z.G.M.c.q q 7 5 X = $ h d g # g # # c m , ; N v Z L L G ",
"u w o a + $ < : & & - :.@ @ @ ; , m b ; @ @ % $ $ & 6 0 b.l.z.q o e m.2 l.G.z.z.i q 7 5 X + $ h # # # g # # % h ; % v B K L H H ",
"p w o > . + 1 : @ & , :.+ @ @ ; < ` , $ $ @ @ @ O & 9 0 u z.q r o x.e r B.B.z.e q q 3 6 * + O d # # @ # # & # d d d f f K U G H ",
"F.w + X   + ; : $ + 8 :.+ @ $ , < O., @ @ @ @ @ + & : 0 t z.0 2 o M.2 r B.M.z.e q 0 3 6 = + O # # % @ @ @ & g g l l l l U H G H "
};
